<svg width="82" height="32" viewBox="0 0 82 32" fill="none" xmlns="http://www.w3.org/2000/svg">
<path d="M3.45372 0.31189V9.05279H6.94528V11.5185H0.538086V0.31189H3.44772H3.45372Z" fill="white"/>
<path d="M7.89917 5.90926C7.89917 5.07536 8.05515 4.30146 8.36111 3.58155C8.66707 2.86164 9.09302 2.23772 9.63895 1.70379C10.1849 1.16985 10.8328 0.749906 11.5947 0.449944C12.3506 0.149981 13.1845 0 14.0964 0C15.0083 0 15.8302 0.149981 16.5921 0.449944C17.354 0.749906 18.0139 1.16985 18.5598 1.70379C19.1118 2.23772 19.5377 2.86764 19.8437 3.58155C20.1496 4.30146 20.3056 5.07536 20.3056 5.90926C20.3056 6.74315 20.1496 7.51706 19.8437 8.23697C19.5377 8.95688 19.1058 9.5808 18.5598 10.1147C18.0079 10.6487 17.354 11.0686 16.5921 11.3686C15.8302 11.6685 14.9963 11.8245 14.0964 11.8245C13.1965 11.8245 12.3506 11.6745 11.5947 11.3686C10.8388 11.0686 10.1849 10.6487 9.63895 10.1147C9.09302 9.5808 8.66707 8.95088 8.36111 8.23697C8.05515 7.52306 7.89917 6.74315 7.89917 5.90926ZM10.9468 5.90926C10.9468 6.3532 11.0308 6.76715 11.1988 7.1451C11.3667 7.52306 11.5947 7.84702 11.8827 8.12298C12.1706 8.39895 12.5066 8.61492 12.8845 8.7709C13.2685 8.92688 13.6704 8.99887 14.0964 8.99887C14.5223 8.99887 14.9243 8.92088 15.3082 8.7709C15.6862 8.61492 16.0281 8.40495 16.3161 8.12298C16.6101 7.84702 16.838 7.51706 17.006 7.1451C17.174 6.76715 17.258 6.3592 17.258 5.90926C17.258 5.45931 17.174 5.05137 17.006 4.67341C16.838 4.29546 16.6041 3.9715 16.3161 3.69554C16.0222 3.41957 15.6862 3.2036 15.3082 3.04762C14.9243 2.89164 14.5223 2.81965 14.0964 2.81965C13.6704 2.81965 13.2685 2.89764 12.8845 3.04762C12.5006 3.1976 12.1706 3.41957 11.8827 3.69554C11.5947 3.9715 11.3667 4.30146 11.1988 4.67341C11.0308 5.05137 10.9468 5.45931 10.9468 5.90926Z" fill="white"/>
<path d="M26.4548 2.77758V11.5125H23.5392V2.77758H21.1455V0.31189H28.8425V2.77758H26.4488H26.4548Z" fill="white"/>
<path d="M33.2342 0.31189V6.40712C33.2342 6.73108 33.2462 7.06704 33.2702 7.409C33.2942 7.75096 33.3722 8.06292 33.4922 8.33888C33.6182 8.61485 33.8102 8.84282 34.0801 9.0168C34.3501 9.19078 34.7221 9.27477 35.208 9.27477C35.6939 9.27477 36.0659 9.19078 36.3299 9.0168C36.5938 8.84282 36.7858 8.62085 36.9178 8.33888C37.0438 8.06292 37.1218 7.75096 37.1457 7.409C37.1697 7.06704 37.1817 6.73108 37.1817 6.40712V0.31189H40.0794V6.80907C40.0794 8.55486 39.6774 9.8267 38.8855 10.6306C38.0876 11.4345 36.8638 11.8364 35.208 11.8364C33.5522 11.8364 32.3224 11.4345 31.5245 10.6306C30.7206 9.8267 30.3186 8.55486 30.3186 6.80907V0.31189H33.2282H33.2342Z" fill="white"/>
<path d="M48.7603 3.17957C48.4424 2.9216 48.1244 2.72962 47.8125 2.60964C47.4945 2.48365 47.1885 2.42366 46.8886 2.42366C46.5106 2.42366 46.2047 2.51365 45.9647 2.69363C45.7247 2.8736 45.6107 3.10158 45.6107 3.38954C45.6107 3.58751 45.6707 3.74949 45.7907 3.88148C45.9107 4.01346 46.0667 4.12145 46.2587 4.21743C46.4506 4.31342 46.6666 4.39141 46.9126 4.4634C47.1525 4.5354 47.3925 4.60739 47.6325 4.68538C48.5804 5.00334 49.2823 5.42928 49.7202 5.95722C50.1582 6.48515 50.3801 7.18106 50.3801 8.03296C50.3801 8.60888 50.2842 9.13082 50.0922 9.59276C49.9002 10.0547 49.6182 10.4567 49.2463 10.7866C48.8743 11.1166 48.4184 11.3745 47.8785 11.5605C47.3385 11.7465 46.7266 11.8365 46.0427 11.8365C44.6269 11.8365 43.313 11.4165 42.1072 10.5706L43.355 8.22493C43.793 8.60888 44.2249 8.89685 44.6509 9.08882C45.0768 9.2748 45.4968 9.37079 45.9167 9.37079C46.3906 9.37079 46.7446 9.2628 46.9786 9.04683C47.2125 8.83086 47.3265 8.57889 47.3265 8.30292C47.3265 8.13494 47.2965 7.99096 47.2365 7.86498C47.1765 7.73899 47.0806 7.62501 46.9366 7.52302C46.7986 7.42103 46.6186 7.32505 46.3966 7.23506C46.1747 7.14507 45.9047 7.04908 45.5867 6.93509C45.2088 6.81511 44.8428 6.68313 44.4769 6.53914C44.1169 6.39516 43.793 6.20319 43.511 5.96922C43.229 5.72925 43.0011 5.42928 42.8271 5.06933C42.6531 4.70937 42.5691 4.24743 42.5691 3.6955C42.5691 3.14357 42.6591 2.63963 42.8451 2.18969C43.0311 1.73975 43.283 1.34979 43.619 1.03183C43.9489 0.707875 44.3569 0.461906 44.8368 0.281929C45.3168 0.101951 45.8567 0.0119629 46.4506 0.0119629C47.0026 0.0119629 47.5845 0.0899532 48.1904 0.239934C48.7963 0.395915 49.3723 0.617887 49.9302 0.917849L48.7723 3.19156L48.7603 3.17957Z" fill="white"/>
<path d="M55.6592 4.67952C55.7372 4.69152 55.8032 4.69752 55.8571 4.69752H56.0011C56.3671 4.69752 56.667 4.58953 56.895 4.37356C57.123 4.15758 57.237 3.87562 57.237 3.52766C57.237 3.17971 57.129 2.91574 56.919 2.71176C56.703 2.50179 56.4331 2.3998 56.0911 2.3998C55.7372 2.3998 55.4492 2.51979 55.2272 2.75376C55.0053 2.98773 54.9033 3.29969 54.9033 3.67764H52.2156C52.2876 3.09572 52.4316 2.57378 52.6536 2.11784C52.8755 1.6619 53.1635 1.27794 53.5054 0.965983C53.8534 0.654022 54.2553 0.414052 54.7233 0.252073C55.1912 0.0900929 55.7012 0.00610352 56.2711 0.00610352C56.841 0.00610352 57.327 0.0840938 57.7769 0.234075C58.2269 0.390055 58.6168 0.606028 58.9348 0.887993C59.2587 1.16996 59.5047 1.51191 59.6787 1.91386C59.8526 2.31581 59.9366 2.76576 59.9366 3.2577C59.9366 3.79163 59.8346 4.22957 59.6307 4.57153C59.4267 4.91349 59.1387 5.20745 58.7608 5.45342C59.3367 5.6334 59.7867 5.95136 60.1046 6.4133C60.4286 6.87524 60.5906 7.43917 60.5906 8.11709C60.5906 8.66902 60.4826 9.17895 60.2666 9.6349C60.0506 10.0908 59.7447 10.4808 59.3547 10.8107C58.9648 11.1347 58.4968 11.3927 57.9569 11.5667C57.417 11.7466 56.823 11.8366 56.1811 11.8366C55.3172 11.8366 54.5433 11.6686 53.8474 11.3327C53.1515 10.9967 52.5996 10.4628 52.1856 9.73088C51.9996 9.40692 51.8736 9.07697 51.8077 8.75301C51.7417 8.42905 51.7117 8.09309 51.7117 7.75713H54.5913C54.6093 8.28506 54.7653 8.68102 55.0533 8.95098C55.3412 9.22695 55.7252 9.35893 56.2111 9.35893C56.727 9.35893 57.105 9.22095 57.339 8.94498C57.5789 8.66902 57.6929 8.32706 57.6929 7.91911C57.6929 7.43317 57.5489 7.06722 57.261 6.82125C56.973 6.57528 56.6311 6.4493 56.2351 6.4493C56.1331 6.4493 56.0431 6.45529 55.9531 6.47329C55.8631 6.49129 55.7672 6.50329 55.6532 6.52729V4.69752L55.6592 4.67952Z" fill="#F1D200"/>
<path d="M69.5057 0.31203L66.3261 3.96557H66.3861C66.6621 3.79759 66.8901 3.6956 67.07 3.65961C67.25 3.62361 67.406 3.60562 67.544 3.60562C68.0899 3.60562 68.5878 3.7076 69.0438 3.91758C69.4997 4.12755 69.8957 4.40952 70.2316 4.76947C70.5676 5.12943 70.8316 5.55537 71.0175 6.04131C71.2035 6.52725 71.2995 7.04918 71.2995 7.60112C71.2995 8.19504 71.1915 8.74697 70.9756 9.25691C70.7596 9.76684 70.4416 10.2108 70.0337 10.5947C69.6197 10.9787 69.1218 11.2787 68.5399 11.4946C67.9579 11.7106 67.298 11.8186 66.5661 11.8186C65.8342 11.8186 65.1623 11.7106 64.5744 11.4946C63.9924 11.2787 63.4945 10.9787 63.0805 10.6007C62.6666 10.2228 62.3546 9.78484 62.1387 9.2869C61.9227 8.78897 61.8147 8.25503 61.8147 7.6911C61.8147 7.05518 61.9587 6.37127 62.2406 5.63336C62.5226 4.89545 62.9546 4.16955 63.5425 3.45564L66.1402 0.30603H69.5117L69.5057 0.31203ZM64.6883 7.66711C64.6883 7.92507 64.7363 8.16504 64.8383 8.38702C64.9403 8.60899 65.0723 8.80696 65.2403 8.97494C65.4083 9.14292 65.6062 9.27491 65.8282 9.37689C66.0502 9.47888 66.2901 9.52687 66.5481 9.52687C66.8061 9.52687 67.046 9.47888 67.268 9.37689C67.49 9.27491 67.688 9.14292 67.8559 8.97494C68.0239 8.80696 68.1559 8.60899 68.2579 8.38702C68.3539 8.16504 68.4079 7.92507 68.4079 7.66711C68.4079 7.40914 68.3599 7.16917 68.2579 6.9472C68.1559 6.72523 68.0239 6.52725 67.8559 6.35927C67.688 6.19129 67.49 6.05931 67.268 5.95732C67.046 5.85533 66.8061 5.80734 66.5481 5.80734C66.2901 5.80734 66.0502 5.85533 65.8282 5.95732C65.6062 6.05931 65.4083 6.19129 65.2403 6.35927C65.0723 6.52725 64.9403 6.72523 64.8383 6.9472C64.7363 7.16917 64.6883 7.40914 64.6883 7.66711Z" fill="#F1D200"/>
<path d="M80.1001 2.77781H76.2246L76.0326 4.01365C76.2126 3.99565 76.3746 3.97766 76.5245 3.95966C76.6745 3.94766 76.8245 3.93566 76.9865 3.93566C77.5504 3.93566 78.0783 4.03765 78.5643 4.23562C79.0502 4.4336 79.4642 4.70956 79.8121 5.05152C80.1601 5.39348 80.4301 5.81343 80.628 6.29937C80.826 6.7853 80.928 7.31324 80.928 7.88917C80.928 8.49509 80.814 9.04102 80.592 9.52096C80.3701 10.0069 80.0521 10.4208 79.6502 10.7628C79.2422 11.1048 78.7503 11.3687 78.1623 11.5487C77.5804 11.7347 76.9265 11.8247 76.2126 11.8247C75.5407 11.8247 74.8988 11.7407 74.2868 11.5787C73.6749 11.4167 73.105 11.1648 72.571 10.8288L73.003 8.09314C73.5009 8.51909 74.0049 8.84305 74.5208 9.06502C75.0367 9.28699 75.5287 9.40098 75.9906 9.40098C76.5845 9.40098 77.0525 9.239 77.4004 8.92104C77.7484 8.59708 77.9224 8.20113 77.9224 7.72719C77.9224 7.17525 77.6884 6.72531 77.2265 6.38335C76.7585 6.0414 76.1526 5.87342 75.3967 5.87342C75.0607 5.87342 74.7128 5.90941 74.3588 5.9874C74.0049 6.06539 73.6509 6.17938 73.303 6.33536L74.2388 0.318115H80.1061V2.78381L80.1001 2.77781Z" fill="#F1D200"/>
<path d="M12.0806 16.5697V19.3054C10.7428 18.1895 9.36298 17.6316 7.93515 17.6316C6.36335 17.6316 5.03752 18.1955 3.95765 19.3294C2.87179 20.4512 2.33186 21.8311 2.33186 23.4569C2.33186 25.0826 2.87179 26.4205 3.95765 27.5243C5.04352 28.6282 6.36935 29.1801 7.94715 29.1801C8.76305 29.1801 9.45296 29.0482 10.0229 28.7842C10.3409 28.6522 10.6708 28.4722 11.0068 28.2503C11.3487 28.0283 11.7087 27.7523 12.0806 27.4344V30.224C10.7608 30.9739 9.36898 31.3459 7.91716 31.3459C5.72743 31.3459 3.86167 30.584 2.31386 29.0542C0.772054 27.5123 0.00415039 25.6586 0.00415039 23.4808C0.00415039 21.5311 0.646069 19.7913 1.93591 18.2615C3.52571 16.3897 5.57745 15.4539 8.09713 15.4539C9.47096 15.4539 10.8028 15.8258 12.0866 16.5757L12.0806 16.5697Z" fill="#00FFBB"/>
<path d="M24.601 27.3445H18.0438L16.34 31.064H13.8503L21.4274 14.7881L28.7345 31.064H26.2088L24.601 27.3445ZM23.6591 25.1728L21.3854 19.9654L19.0037 25.1728H23.6531H23.6591Z" fill="#00FFBB"/>
<path d="M39.5573 18.0277L37.6856 19.1375C37.3376 18.5316 37.0017 18.1357 36.6837 17.9497C36.3537 17.7397 35.9278 17.6317 35.4059 17.6317C34.7639 17.6317 34.23 17.8117 33.8101 18.1777C33.3841 18.5316 33.1741 18.9876 33.1741 19.5275C33.1741 20.2774 33.7321 20.8773 34.8419 21.3333L36.3717 21.9572C37.6136 22.4611 38.5255 23.073 39.1014 23.799C39.6773 24.5249 39.9653 25.4127 39.9653 26.4626C39.9653 27.8724 39.4974 29.0363 38.5555 29.9542C37.6076 30.8781 36.4377 31.34 35.0339 31.34C33.7021 31.34 32.6102 30.9501 31.7403 30.1582C30.8884 29.3723 30.3545 28.2624 30.1445 26.8346L32.4842 26.3186C32.5922 27.2185 32.7782 27.8424 33.0422 28.1844C33.5161 28.8443 34.212 29.1743 35.1239 29.1743C35.8438 29.1743 36.4437 28.9343 36.9177 28.4484C37.3916 27.9684 37.6316 27.3565 37.6316 26.6126C37.6316 26.3126 37.5896 26.0427 37.5056 25.7967C37.4216 25.5507 37.2956 25.3228 37.1217 25.1128C36.9477 24.9028 36.7197 24.7108 36.4437 24.5309C36.1678 24.3509 35.8378 24.1769 35.4539 24.0089L33.978 23.391C31.8843 22.5031 30.8344 21.2073 30.8344 19.5035C30.8344 18.3516 31.2724 17.3918 32.1543 16.6179C33.0302 15.8379 34.128 15.448 35.4359 15.448C37.1996 15.448 38.5795 16.3059 39.5693 18.0277H39.5573Z" fill="#00FFBB"/>
<path d="M45.2924 15.7479V31.058H42.9827V15.7479H45.2924Z" fill="#00FFBB"/>
<path d="M49.216 31.0639V14.71L60.3806 26.3965V15.7538H62.6903V31.9998L51.5197 20.3433V31.0639H49.21H49.216Z" fill="#00FFBB"/>
<path d="M65.9839 23.337C65.9839 21.1832 66.7758 19.3295 68.3536 17.7817C69.9254 16.2339 71.8212 15.46 74.0289 15.46C76.2366 15.46 78.0844 16.2399 79.6442 17.7997C81.21 19.3595 81.9959 21.2372 81.9959 23.421C81.9959 25.6047 81.21 27.4885 79.6382 29.0243C78.0604 30.5661 76.1526 31.334 73.9149 31.334C71.9351 31.334 70.1654 30.6501 68.5876 29.2822C66.8538 27.7704 65.9899 25.7847 65.9899 23.331L65.9839 23.337ZM68.3116 23.367C68.3116 25.0588 68.8815 26.4506 70.0154 27.5424C71.1432 28.6343 72.4511 29.1802 73.9329 29.1802C75.5407 29.1802 76.8965 28.6223 78.0004 27.5124C79.1042 26.3906 79.6562 25.0228 79.6562 23.409C79.6562 21.7952 79.1102 20.4093 78.0184 19.3055C76.9325 18.1956 75.5947 17.6377 73.9929 17.6377C72.3911 17.6377 71.0533 18.1956 69.9554 19.3055C68.8575 20.4033 68.3116 21.7592 68.3116 23.373V23.367Z" fill="#00FFBB"/>
</svg>
