<svg width="136" height="41" viewBox="0 0 136 41" fill="none" xmlns="http://www.w3.org/2000/svg">
<g clip-path="url(#clip0_650_416)">
<path d="M130.302 1.43286H5.30237C2.81709 1.43286 0.802368 3.44758 0.802368 5.93286V35.9329C0.802368 38.4181 2.81709 40.4329 5.30237 40.4329H130.302C132.788 40.4329 134.802 38.4181 134.802 35.9329V5.93286C134.802 3.44758 132.788 1.43286 130.302 1.43286Z" fill="black"/>
<path d="M55.2723 18.0629H53.0723V10.9229H55.3723C56.0623 10.9229 56.6623 11.0629 57.1523 11.3529C57.6423 11.6329 58.0223 12.0429 58.2823 12.5729C58.5423 13.1029 58.6723 13.7329 58.6723 14.4729C58.6723 15.2129 58.5423 15.8529 58.2723 16.3929C58.0123 16.9229 57.6223 17.3429 57.1123 17.6229C56.6023 17.9129 55.9923 18.0529 55.2623 18.0529L55.2723 18.0629ZM53.9323 17.2929H55.2123C55.8023 17.2929 56.2923 17.1829 56.6823 16.9529C57.0723 16.7229 57.3623 16.4029 57.5523 15.9829C57.7423 15.5629 57.8423 15.0629 57.8423 14.4829C57.8423 13.9029 57.7523 13.4129 57.5623 12.9929C57.3723 12.5729 57.0923 12.2529 56.7223 12.0329C56.3523 11.8029 55.8823 11.6929 55.3223 11.6929H53.9423V17.3029L53.9323 17.2929ZM62.1923 18.1729C61.7123 18.1729 61.2823 18.0529 60.9223 17.8229C60.5623 17.5929 60.2723 17.2729 60.0723 16.8529C59.8723 16.4429 59.7723 15.9529 59.7723 15.4029C59.7723 14.8529 59.8723 14.3629 60.0723 13.9429C60.2723 13.5229 60.5623 13.2029 60.9223 12.9729C61.2823 12.7429 61.7123 12.6229 62.1923 12.6229C62.6723 12.6229 63.1023 12.7429 63.4623 12.9729C63.8223 13.2029 64.1123 13.5229 64.3123 13.9429C64.5123 14.3629 64.6223 14.8429 64.6223 15.4029C64.6223 15.9629 64.5223 16.4429 64.3123 16.8529C64.1123 17.2629 63.8223 17.5929 63.4623 17.8229C63.1023 18.0529 62.6723 18.1729 62.1923 18.1729ZM62.1923 17.4329C62.5623 17.4329 62.8623 17.3429 63.1023 17.1529C63.3423 16.9629 63.5123 16.7129 63.6323 16.4129C63.7423 16.1029 63.8023 15.7729 63.8023 15.4129C63.8023 15.0529 63.7423 14.7229 63.6323 14.4129C63.5223 14.1029 63.3423 13.8529 63.1023 13.6629C62.8623 13.4729 62.5623 13.3729 62.1923 13.3729C61.8223 13.3729 61.5223 13.4729 61.2823 13.6629C61.0423 13.8529 60.8723 14.1029 60.7523 14.4129C60.6423 14.7229 60.5823 15.0529 60.5823 15.4129C60.5823 15.7729 60.6423 16.1029 60.7523 16.4129C60.8623 16.7229 61.0423 16.9629 61.2823 17.1529C61.5223 17.3429 61.8223 17.4329 62.1923 17.4329ZM66.9023 18.0629L65.2723 12.7029H66.1323L67.2923 16.8029H67.3523L68.4923 12.7029H69.3723L70.5023 16.7929H70.5623L71.7223 12.7029H72.5823L70.9523 18.0629H70.1423L68.9723 13.9529H68.8923L67.7223 18.0629H66.9123H66.9023ZM74.4923 14.8429V18.0629H73.6723V12.7029H74.4623V13.5429H74.5323C74.6623 13.2729 74.8523 13.0529 75.1023 12.8829C75.3623 12.7129 75.6923 12.6329 76.0923 12.6329C76.4523 12.6329 76.7723 12.7029 77.0423 12.8529C77.3123 13.0029 77.5223 13.2229 77.6723 13.5229C77.8223 13.8229 77.9023 14.1929 77.9023 14.6529V18.0529H77.0823V14.7029C77.0823 14.2829 76.9723 13.9529 76.7523 13.7229C76.5323 13.4829 76.2323 13.3629 75.8523 13.3629C75.5923 13.3629 75.3523 13.4229 75.1523 13.5329C74.9523 13.6429 74.7823 13.8129 74.6723 14.0329C74.5523 14.2529 74.4923 14.5129 74.4923 14.8229V14.8429ZM80.2323 10.9229V18.0629H79.4123V10.9229H80.2323ZM83.9123 18.1729C83.4323 18.1729 83.0023 18.0529 82.6423 17.8229C82.2823 17.5929 81.9923 17.2729 81.7923 16.8529C81.5923 16.4429 81.4923 15.9529 81.4923 15.4029C81.4923 14.8529 81.5923 14.3629 81.7923 13.9429C81.9923 13.5229 82.2823 13.2029 82.6423 12.9729C83.0023 12.7429 83.4323 12.6229 83.9123 12.6229C84.3923 12.6229 84.8223 12.7429 85.1823 12.9729C85.5423 13.2029 85.8323 13.5229 86.0323 13.9429C86.2323 14.3629 86.3423 14.8429 86.3423 15.4029C86.3423 15.9629 86.2423 16.4429 86.0323 16.8529C85.8323 17.2629 85.5423 17.5929 85.1823 17.8229C84.8223 18.0529 84.3923 18.1729 83.9123 18.1729ZM83.9123 17.4329C84.2823 17.4329 84.5823 17.3429 84.8223 17.1529C85.0623 16.9629 85.2323 16.7129 85.3523 16.4129C85.4723 16.1129 85.5223 15.7729 85.5223 15.4129C85.5223 15.0529 85.4623 14.7229 85.3523 14.4129C85.2423 14.1029 85.0623 13.8529 84.8223 13.6629C84.5823 13.4729 84.2823 13.3729 83.9123 13.3729C83.5423 13.3729 83.2423 13.4729 83.0023 13.6629C82.7623 13.8529 82.5923 14.1029 82.4723 14.4129C82.3623 14.7229 82.3023 15.0529 82.3023 15.4129C82.3023 15.7729 82.3623 16.1029 82.4723 16.4129C82.5823 16.7229 82.7623 16.9629 83.0023 17.1529C83.2423 17.3429 83.5423 17.4329 83.9123 17.4329ZM89.1723 18.1829C88.8323 18.1829 88.5223 18.1229 88.2523 17.9929C87.9723 17.8629 87.7523 17.6729 87.5923 17.4329C87.4323 17.1829 87.3523 16.8929 87.3523 16.5429C87.3523 16.2329 87.4123 15.9829 87.5323 15.7929C87.6523 15.6029 87.8123 15.4529 88.0123 15.3429C88.2123 15.2329 88.4423 15.1529 88.6823 15.1029C88.9323 15.0429 89.1723 15.0029 89.4223 14.9729C89.7523 14.9329 90.0123 14.9029 90.2123 14.8829C90.4123 14.8629 90.5623 14.8229 90.6623 14.7629C90.7623 14.7129 90.8023 14.6129 90.8023 14.4829V14.4529C90.8023 14.1129 90.7123 13.8429 90.5223 13.6529C90.3323 13.4629 90.0523 13.3629 89.6723 13.3629C89.2923 13.3629 88.9723 13.4529 88.7523 13.6229C88.5323 13.7929 88.3723 13.9829 88.2823 14.1729L87.5023 13.8929C87.6423 13.5629 87.8323 13.3129 88.0623 13.1329C88.2923 12.9529 88.5523 12.8229 88.8323 12.7529C89.1123 12.6829 89.3823 12.6429 89.6523 12.6429C89.8223 12.6429 90.0223 12.6629 90.2423 12.7029C90.4723 12.7429 90.6823 12.8229 90.8923 12.9529C91.1023 13.0829 91.2823 13.2629 91.4223 13.5229C91.5623 13.7729 91.6323 14.1129 91.6323 14.5429V18.0729H90.8123V17.3429H90.7723C90.7123 17.4629 90.6223 17.5829 90.4923 17.7129C90.3623 17.8429 90.1923 17.9629 89.9723 18.0529C89.7523 18.1429 89.4923 18.1929 89.1823 18.1929L89.1723 18.1829ZM89.3023 17.4429C89.6323 17.4429 89.9023 17.3829 90.1223 17.2529C90.3523 17.1229 90.5223 16.9629 90.6323 16.7529C90.7523 16.5529 90.8023 16.3429 90.8023 16.1129V15.3629C90.8023 15.3629 90.6923 15.4429 90.5723 15.4829C90.4523 15.5129 90.3223 15.5429 90.1723 15.5729C90.0223 15.5929 89.8723 15.6129 89.7323 15.6329C89.5923 15.6529 89.4723 15.6629 89.3823 15.6729C89.1723 15.7029 88.9723 15.7429 88.7823 15.8129C88.6023 15.8729 88.4523 15.9629 88.3323 16.0929C88.2223 16.2129 88.1623 16.3829 88.1623 16.5929C88.1623 16.8829 88.2723 17.0929 88.4823 17.2429C88.6923 17.3829 88.9623 17.4629 89.2923 17.4629L89.3023 17.4429ZM95.1523 18.1729C94.7023 18.1729 94.3123 18.0629 93.9723 17.8329C93.6323 17.6029 93.3623 17.2829 93.1723 16.8729C92.9823 16.4529 92.8823 15.9629 92.8823 15.4029C92.8823 14.8429 92.9823 14.3529 93.1723 13.9429C93.3623 13.5329 93.6323 13.2129 93.9823 12.9829C94.3223 12.7529 94.7223 12.6429 95.1723 12.6429C95.5223 12.6429 95.7923 12.7029 96.0023 12.8129C96.2023 12.9229 96.3623 13.0529 96.4723 13.2029C96.5823 13.3429 96.6623 13.4629 96.7223 13.5629H96.7923V10.9229H97.6123V18.0629H96.8223V17.2429H96.7223C96.6623 17.3429 96.5723 17.4629 96.4623 17.6129C96.3523 17.7629 96.1923 17.8929 95.9823 18.0029C95.7723 18.1129 95.5023 18.1729 95.1523 18.1729ZM95.2623 17.4329C95.5923 17.4329 95.8723 17.3429 96.1023 17.1729C96.3323 17.0029 96.5023 16.7629 96.6223 16.4529C96.7423 16.1429 96.8023 15.7829 96.8023 15.3829C96.8023 14.9829 96.7423 14.6329 96.6323 14.3329C96.5123 14.0329 96.3423 13.7929 96.1123 13.6329C95.8823 13.4629 95.6023 13.3829 95.2723 13.3829C94.9423 13.3829 94.6323 13.4729 94.4023 13.6529C94.1723 13.8329 94.0023 14.0729 93.8823 14.3729C93.7723 14.6729 93.7123 15.0129 93.7123 15.3929C93.7123 15.7729 93.7723 16.1229 93.8823 16.4329C94.0023 16.7429 94.1723 16.9929 94.4023 17.1729C94.6323 17.3529 94.9223 17.4429 95.2623 17.4429V17.4329Z" fill="white"/>
<path d="M54.7223 30.5729H53.0723L55.5823 23.3029H57.5623L60.0723 30.5729H58.4223L56.6023 24.9629H56.5423L54.7123 30.5729H54.7223ZM54.6223 27.7129H58.5123V28.9129H54.6223V27.7129ZM67.0323 23.3029V30.5729H65.7023L62.5423 25.9929H62.4923V30.5729H60.9523V23.3029H62.3023L65.4423 27.8729H65.5023V23.3029H67.0323ZM70.8823 30.5729H68.3023V23.3029H70.9023C71.6323 23.3029 72.2623 23.4529 72.7923 23.7429C73.3223 24.0329 73.7223 24.4429 74.0123 24.9929C74.3023 25.5329 74.4423 26.1829 74.4423 26.9429C74.4423 27.7029 74.3023 28.3529 74.0123 28.8929C73.7323 29.4329 73.3223 29.8529 72.7823 30.1429C72.2523 30.4329 71.6223 30.5829 70.8823 30.5829V30.5729ZM69.8423 29.2529H70.8223C71.2723 29.2529 71.6623 29.1729 71.9723 29.0129C72.2823 28.8529 72.5223 28.5929 72.6723 28.2529C72.8323 27.9129 72.9123 27.4629 72.9123 26.9229C72.9123 26.3829 72.8323 25.9429 72.6723 25.6029C72.5123 25.2629 72.2823 25.0129 71.9723 24.8529C71.6623 24.6929 71.2823 24.6129 70.8223 24.6129H69.8423V29.2529ZM75.5823 30.5729V23.3029H78.4523C79.0023 23.3029 79.4723 23.4029 79.8623 23.5929C80.2523 23.7829 80.5523 24.0629 80.7523 24.4229C80.9623 24.7829 81.0623 25.1929 81.0623 25.6729C81.0623 26.1529 80.9623 26.5729 80.7523 26.9229C80.5423 27.2729 80.2423 27.5329 79.8423 27.7229C79.4523 27.9029 78.9723 28.0029 78.4123 28.0029H76.4923V26.7629H78.1623C78.4523 26.7629 78.7023 26.7229 78.8923 26.6429C79.0823 26.5629 79.2323 26.4429 79.3223 26.2829C79.4223 26.1229 79.4723 25.9229 79.4723 25.6829C79.4723 25.4429 79.4223 25.2329 79.3223 25.0729C79.2323 24.9029 79.0823 24.7829 78.8823 24.6929C78.6923 24.6029 78.4423 24.5629 78.1423 24.5629H77.1023V30.5829H75.5623L75.5823 30.5729ZM79.5123 27.2629L81.3223 30.5729H79.6223L77.8523 27.2629H79.5123ZM88.8323 26.9329C88.8323 27.7229 88.6823 28.4029 88.3823 28.9529C88.0823 29.5129 87.6723 29.9329 87.1623 30.2229C86.6523 30.5129 86.0723 30.6629 85.4323 30.6629C84.7923 30.6629 84.2023 30.5129 83.6923 30.2229C83.1823 29.9329 82.7723 29.5029 82.4723 28.9529C82.1723 28.3929 82.0223 27.7229 82.0223 26.9329C82.0223 26.1429 82.1723 25.4629 82.4723 24.9129C82.7723 24.3529 83.1723 23.9329 83.6923 23.6429C84.2023 23.3529 84.7823 23.2029 85.4323 23.2029C86.0823 23.2029 86.6523 23.3529 87.1623 23.6429C87.6823 23.9329 88.0823 24.3529 88.3823 24.9129C88.6823 25.4729 88.8323 26.1429 88.8323 26.9329ZM87.2723 26.9329C87.2723 26.4229 87.1923 25.9829 87.0423 25.6329C86.8923 25.2829 86.6723 25.0129 86.4023 24.8329C86.1323 24.6529 85.8023 24.5629 85.4323 24.5629C85.0623 24.5629 84.7323 24.6529 84.4623 24.8329C84.1923 25.0129 83.9723 25.2829 83.8123 25.6329C83.6623 25.9829 83.5823 26.4229 83.5823 26.9329C83.5823 27.4429 83.6623 27.8829 83.8123 28.2329C83.9623 28.5829 84.1823 28.8529 84.4623 29.0329C84.7423 29.2129 85.0623 29.3029 85.4323 29.3029C85.8023 29.3029 86.1323 29.2129 86.4023 29.0329C86.6823 28.8529 86.8923 28.5829 87.0423 28.2329C87.1923 27.8829 87.2723 27.4429 87.2723 26.9329ZM91.5123 23.2929V30.5629H89.9723V23.2929H91.5123ZM95.3523 30.5629H92.7723V23.2929H95.3723C96.1023 23.2929 96.7323 23.4429 97.2623 23.7329C97.7923 24.0229 98.1923 24.4329 98.4823 24.9829C98.7723 25.5229 98.9123 26.1729 98.9123 26.9329C98.9123 27.6929 98.7723 28.3429 98.4823 28.8829C98.2023 29.4229 97.7923 29.8429 97.2523 30.1329C96.7223 30.4229 96.0923 30.5729 95.3523 30.5729V30.5629ZM94.3123 29.2429H95.2923C95.7423 29.2429 96.1323 29.1629 96.4423 29.0029C96.7523 28.8429 96.9923 28.5829 97.1423 28.2429C97.3023 27.9029 97.3823 27.4529 97.3823 26.9129C97.3823 26.3729 97.3023 25.9329 97.1423 25.5929C96.9823 25.2529 96.7523 25.0029 96.4423 24.8429C96.1323 24.6829 95.7523 24.6029 95.2923 24.6029H94.3123V29.2429ZM103.622 30.5629H101.972L104.482 23.2929H106.462L108.972 30.5629H107.322L105.502 24.9529H105.442L103.612 30.5629H103.622ZM103.522 27.7029H107.412V28.9029H103.522V27.7029ZM109.852 30.5629V23.2929H112.722C113.272 23.2929 113.742 23.4029 114.132 23.6129C114.522 23.8229 114.812 24.1129 115.022 24.4829C115.232 24.8529 115.332 25.2829 115.332 25.7629C115.332 26.2429 115.232 26.6729 115.022 27.0429C114.812 27.4129 114.512 27.7029 114.112 27.9029C113.722 28.1129 113.242 28.2129 112.682 28.2129H110.852V26.9829H112.432C112.732 26.9829 112.972 26.9329 113.162 26.8329C113.352 26.7329 113.502 26.5829 113.592 26.4029C113.692 26.2229 113.742 26.0029 113.742 25.7629C113.742 25.5229 113.692 25.3129 113.592 25.1329C113.502 24.9529 113.352 24.8129 113.162 24.7129C112.972 24.6129 112.722 24.5629 112.422 24.5629H111.382V30.5829H109.842L109.852 30.5629ZM116.322 30.5629V23.2929H119.192C119.742 23.2929 120.212 23.4029 120.602 23.6129C120.992 23.8229 121.282 24.1129 121.492 24.4829C121.702 24.8529 121.802 25.2829 121.802 25.7629C121.802 26.2429 121.702 26.6729 121.492 27.0429C121.282 27.4129 120.982 27.7029 120.582 27.9029C120.192 28.1129 119.712 28.2129 119.152 28.2129H117.322V26.9829H118.902C119.202 26.9829 119.442 26.9329 119.632 26.8329C119.822 26.7329 119.972 26.5829 120.062 26.4029C120.162 26.2229 120.212 26.0029 120.212 25.7629C120.212 25.5229 120.162 25.3129 120.062 25.1329C119.972 24.9529 119.822 24.8129 119.632 24.7129C119.442 24.6129 119.192 24.5629 118.892 24.5629H117.852V30.5829H116.312L116.322 30.5629Z" fill="white"/>
<path d="M41.0524 27.1829L27.4424 35.2529L13.8224 27.1829H17.3824V20.4929H37.4924V27.1829H41.0524Z" fill="#54B948"/>
<path d="M17.3824 19.6529H37.4924C37.2424 16.5929 35.6224 13.9229 33.2524 12.2429L34.8324 9.60286C34.9924 9.33286 34.9024 8.98286 34.6324 8.81286C34.5424 8.75286 34.4424 8.73286 34.3424 8.73286C34.1424 8.73286 33.9624 8.83286 33.8524 9.01286L32.2924 11.6329C30.8524 10.8429 29.2024 10.3929 27.4424 10.3929C25.6824 10.3929 24.0324 10.8429 22.5924 11.6329L21.0324 9.01286C20.8724 8.74286 20.5224 8.65286 20.2424 8.81286C19.9724 8.97286 19.8824 9.32286 20.0424 9.60286L21.6224 12.2429C19.2524 13.9129 17.6324 16.5929 17.3824 19.6529ZM31.6024 14.6929C32.3224 14.6929 32.9124 15.2829 32.9124 16.0029C32.9124 16.7229 32.3224 17.3129 31.6024 17.3129C30.8824 17.3129 30.2924 16.7229 30.2924 16.0029C30.2924 15.2829 30.8824 14.6929 31.6024 14.6929ZM23.2724 14.6929C23.9924 14.6929 24.5824 15.2829 24.5824 16.0029C24.5824 16.7229 23.9924 17.3129 23.2724 17.3129C22.5524 17.3129 21.9624 16.7229 21.9624 16.0029C21.9624 15.2829 22.5524 14.6929 23.2724 14.6929Z" fill="#54B948"/>
</g>
<defs>
<clipPath id="clip0_650_416">
<rect width="135" height="40" fill="white" transform="translate(0.302368 0.932861)"/>
</clipPath>
</defs>
</svg>
