<svg width="127" height="41" viewBox="0 0 127 41" fill="none" xmlns="http://www.w3.org/2000/svg">
<rect y="0.932861" width="127" height="40" rx="4" fill="black"/>
<g clip-path="url(#clip0_650_429)">
<path d="M32.5028 12.4206C30.2467 10.1728 27.2467 8.93423 24.0504 8.93286C17.464 8.93286 12.1039 14.2676 12.1013 20.8248C12.1005 22.9208 12.6506 24.9668 13.6962 26.7703L12.001 32.9329L18.3353 31.2792C20.0806 32.2268 22.0456 32.7262 24.0453 32.727H24.0504H24.0504C30.6358 32.727 35.9966 27.3913 35.9994 20.8344C36.0005 17.6565 34.7587 14.6685 32.5028 12.4206ZM24.0504 30.7184H24.0465C22.2641 30.7174 20.5162 30.241 18.9916 29.3403L18.6288 29.1262L14.8699 30.1074L15.8735 26.4599L15.6371 26.086C14.6428 24.512 14.118 22.6932 14.1187 20.8255C14.1209 15.3754 18.5759 10.9415 24.0542 10.9415C26.707 10.9426 29.2004 11.9721 31.0756 13.8404C32.9507 15.7086 33.9826 18.1922 33.9818 20.8336C33.9795 26.2839 29.5243 30.7184 24.0504 30.7184Z" fill="#E0E0E0"/>
<path d="M12.5493 32.2491L14.1671 26.3681C13.169 24.6469 12.6442 22.6942 12.6448 20.6943C12.6474 14.4368 17.7627 9.34589 24.0477 9.34589C27.0981 9.34726 29.9611 10.5292 32.1137 12.6743C34.2668 14.8194 35.4518 17.6708 35.4505 20.7032C35.4479 26.9609 30.3324 32.0522 24.0481 32.0522C24.0477 32.0522 24.0484 32.0522 24.0481 32.0522H24.0431C22.1347 32.0516 20.2596 31.5747 18.5942 30.671L12.5493 32.2491Z" fill="url(#paint0_linear_650_429)"/>
<path fill-rule="evenodd" clip-rule="evenodd" d="M21.0974 15.7761C20.8763 15.2867 20.6436 15.277 20.4333 15.2684C20.2612 15.261 20.0643 15.2615 19.8677 15.2615C19.6709 15.2615 19.3511 15.3351 19.0807 15.6292C18.8101 15.9232 18.0476 16.634 18.0476 18.0796C18.0476 19.5254 19.1053 20.9224 19.2527 21.1186C19.4003 21.3145 21.2945 24.376 24.2943 25.5538C26.7875 26.5326 27.2948 26.3379 27.836 26.2889C28.3771 26.24 29.5821 25.5783 29.8281 24.8921C30.074 24.2061 30.074 23.6181 30.0002 23.4952C29.9264 23.3727 29.7297 23.2992 29.4345 23.1523C29.1393 23.0054 27.6884 22.2944 27.4178 22.1964C27.1472 22.0985 26.9504 22.0495 26.7537 22.3437C26.5569 22.6376 25.9916 23.2992 25.8194 23.4952C25.6472 23.6915 25.475 23.716 25.1799 23.5691C24.8847 23.4217 23.9341 23.1117 22.8065 22.1107C21.9291 21.3319 21.3368 20.3701 21.1646 20.0759C20.9924 19.7821 21.1461 19.6229 21.2942 19.4764C21.4267 19.3448 21.5894 19.1334 21.7369 18.9618C21.8842 18.7902 21.9334 18.6678 22.0318 18.4719C22.1302 18.2756 22.081 18.1041 22.0072 17.9571C21.9334 17.8102 21.3598 16.3571 21.0974 15.7761Z" fill="white"/>
<path d="M32.4049 12.3828C30.1747 10.1608 27.2091 8.93648 24.0496 8.93509C17.5387 8.93509 12.2402 14.2086 12.2376 20.6905C12.2368 22.7625 12.7806 24.785 13.8141 26.5678L12.1384 32.6596L18.4001 31.0249C20.1253 31.9616 22.0678 32.4552 24.0445 32.456H24.0495H24.0496C30.5593 32.456 35.8586 27.1816 35.8614 20.7C35.8625 17.5586 34.6349 14.6049 32.4049 12.3828ZM24.0496 30.4705H24.0457C22.2838 30.4696 20.5559 29.9986 19.0488 29.1083L18.6902 28.8966L14.9744 29.8666L15.9664 26.2609L15.7328 25.8913C14.7499 24.3355 14.2311 22.5375 14.2319 20.6913C14.234 15.3037 18.6379 10.9207 24.0533 10.9207C26.6757 10.9218 29.1404 11.9395 30.9941 13.7863C32.8477 15.6331 33.8677 18.0882 33.867 20.6992C33.8647 26.0869 29.4606 30.4705 24.0496 30.4705Z" fill="white"/>
</g>
<path d="M51.76 11.0929L49.288 19.4329H47.74L45.988 13.1209L44.128 19.4329L42.592 19.4449L40.228 11.0929H41.68L43.408 17.8849L45.28 11.0929H46.816L48.556 17.8489L50.296 11.0929H51.76ZM56.3083 12.7129C56.8123 12.7129 57.2603 12.8209 57.6523 13.0369C58.0523 13.2529 58.3643 13.5729 58.5883 13.9969C58.8203 14.4209 58.9363 14.9329 58.9363 15.5329V19.4329H57.5803V15.7369C57.5803 15.1449 57.4323 14.6929 57.1363 14.3809C56.8403 14.0609 56.4363 13.9009 55.9243 13.9009C55.4123 13.9009 55.0043 14.0609 54.7003 14.3809C54.4043 14.6929 54.2563 15.1449 54.2563 15.7369V19.4329H52.8883V10.5529H54.2563V13.5889C54.4883 13.3089 54.7803 13.0929 55.1323 12.9409C55.4923 12.7889 55.8843 12.7129 56.3083 12.7129ZM60.2253 16.0969C60.2253 15.4329 60.3613 14.8449 60.6333 14.3329C60.9133 13.8209 61.2893 13.4249 61.7613 13.1449C62.2413 12.8569 62.7693 12.7129 63.3453 12.7129C63.8653 12.7129 64.3173 12.8169 64.7013 13.0249C65.0933 13.2249 65.4053 13.4769 65.6373 13.7809V12.8209H67.0173V19.4329H65.6373V18.4489C65.4053 18.7609 65.0893 19.0209 64.6893 19.2289C64.2893 19.4369 63.8333 19.5409 63.3213 19.5409C62.7533 19.5409 62.2333 19.3969 61.7613 19.1089C61.2893 18.8129 60.9133 18.4049 60.6333 17.8849C60.3613 17.3569 60.2253 16.7609 60.2253 16.0969ZM65.6373 16.1209C65.6373 15.6649 65.5413 15.2689 65.3493 14.9329C65.1653 14.5969 64.9213 14.3409 64.6173 14.1649C64.3133 13.9889 63.9853 13.9009 63.6333 13.9009C63.2813 13.9009 62.9533 13.9889 62.6493 14.1649C62.3453 14.3329 62.0973 14.5849 61.9053 14.9209C61.7213 15.2489 61.6293 15.6409 61.6293 16.0969C61.6293 16.5529 61.7213 16.9529 61.9053 17.2969C62.0973 17.6409 62.3453 17.9049 62.6493 18.0889C62.9613 18.2649 63.2893 18.3529 63.6333 18.3529C63.9853 18.3529 64.3133 18.2649 64.6173 18.0889C64.9213 17.9129 65.1653 17.6569 65.3493 17.3209C65.5413 16.9769 65.6373 16.5769 65.6373 16.1209ZM70.4101 13.9369V17.5969C70.4101 17.8449 70.4661 18.0249 70.5781 18.1369C70.6981 18.2409 70.8981 18.2929 71.1781 18.2929H72.0181V19.4329H70.9381C70.3221 19.4329 69.8501 19.2889 69.5221 19.0009C69.1941 18.7129 69.0301 18.2449 69.0301 17.5969V13.9369H68.2501V12.8209H69.0301V11.1769H70.4101V12.8209H72.0181V13.9369H70.4101ZM75.6789 19.5409C75.1589 19.5409 74.6909 19.4489 74.2749 19.2649C73.8669 19.0729 73.5429 18.8169 73.3029 18.4969C73.0629 18.1689 72.9349 17.8049 72.9189 17.4049H74.3349C74.3589 17.6849 74.4909 17.9209 74.7309 18.1129C74.9789 18.2969 75.2869 18.3889 75.6549 18.3889C76.0389 18.3889 76.3349 18.3169 76.5429 18.1729C76.7589 18.0209 76.8669 17.8289 76.8669 17.5969C76.8669 17.3489 76.7469 17.1649 76.5069 17.0449C76.2749 16.9249 75.9029 16.7929 75.3909 16.6489C74.8949 16.5129 74.4909 16.3809 74.1789 16.2529C73.8669 16.1249 73.5949 15.9289 73.3629 15.6649C73.1389 15.4009 73.0269 15.0529 73.0269 14.6209C73.0269 14.2689 73.1309 13.9489 73.3389 13.6609C73.5469 13.3649 73.8429 13.1329 74.2269 12.9649C74.6189 12.7969 75.0669 12.7129 75.5709 12.7129C76.3229 12.7129 76.9269 12.9049 77.3829 13.2889C77.8469 13.6649 78.0949 14.1809 78.1269 14.8369H76.7589C76.7349 14.5409 76.6149 14.3049 76.3989 14.1289C76.1829 13.9529 75.8909 13.8649 75.5229 13.8649C75.1629 13.8649 74.8869 13.9329 74.6949 14.0689C74.5029 14.2049 74.4069 14.3849 74.4069 14.6089C74.4069 14.7849 74.4709 14.9329 74.5989 15.0529C74.7269 15.1729 74.8829 15.2689 75.0669 15.3409C75.2509 15.4049 75.5229 15.4889 75.8829 15.5929C76.3629 15.7209 76.7549 15.8529 77.0589 15.9889C77.3709 16.1169 77.6389 16.3089 77.8629 16.5649C78.0869 16.8209 78.2029 17.1609 78.2109 17.5849C78.2109 17.9609 78.1069 18.2969 77.8989 18.5929C77.6909 18.8889 77.3949 19.1209 77.0109 19.2889C76.6349 19.4569 76.1909 19.5409 75.6789 19.5409ZM79.2331 16.0969C79.2331 15.4329 79.3691 14.8449 79.6411 14.3329C79.9211 13.8209 80.2971 13.4249 80.7691 13.1449C81.2491 12.8569 81.7771 12.7129 82.3531 12.7129C82.8731 12.7129 83.3251 12.8169 83.7091 13.0249C84.1011 13.2249 84.4131 13.4769 84.6451 13.7809V12.8209H86.0251V19.4329H84.6451V18.4489C84.4131 18.7609 84.0971 19.0209 83.6971 19.2289C83.2971 19.4369 82.8411 19.5409 82.3291 19.5409C81.7611 19.5409 81.2411 19.3969 80.7691 19.1089C80.2971 18.8129 79.9211 18.4049 79.6411 17.8849C79.3691 17.3569 79.2331 16.7609 79.2331 16.0969ZM84.6451 16.1209C84.6451 15.6649 84.5491 15.2689 84.3571 14.9329C84.1731 14.5969 83.9291 14.3409 83.6251 14.1649C83.3211 13.9889 82.9931 13.9009 82.6411 13.9009C82.2891 13.9009 81.9611 13.9889 81.6571 14.1649C81.3531 14.3329 81.1051 14.5849 80.9131 14.9209C80.7291 15.2489 80.6371 15.6409 80.6371 16.0969C80.6371 16.5529 80.7291 16.9529 80.9131 17.2969C81.1051 17.6409 81.3531 17.9049 81.6571 18.0889C81.9691 18.2649 82.2971 18.3529 82.6411 18.3529C82.9931 18.3529 83.3211 18.2649 83.6251 18.0889C83.9291 17.9129 84.1731 17.6569 84.3571 17.3209C84.5491 16.9769 84.6451 16.5769 84.6451 16.1209ZM89.1899 13.7929C89.4219 13.4889 89.7379 13.2329 90.1379 13.0249C90.5379 12.8169 90.9899 12.7129 91.4939 12.7129C92.0699 12.7129 92.5939 12.8569 93.0659 13.1449C93.5459 13.4249 93.9219 13.8209 94.1939 14.3329C94.4659 14.8449 94.6019 15.4329 94.6019 16.0969C94.6019 16.7609 94.4659 17.3569 94.1939 17.8849C93.9219 18.4049 93.5459 18.8129 93.0659 19.1089C92.5939 19.3969 92.0699 19.5409 91.4939 19.5409C90.9899 19.5409 90.5419 19.4409 90.1499 19.2409C89.7579 19.0329 89.4379 18.7769 89.1899 18.4729V22.5769H87.8219V12.8209H89.1899V13.7929ZM93.2099 16.0969C93.2099 15.6409 93.1139 15.2489 92.9219 14.9209C92.7379 14.5849 92.4899 14.3329 92.1779 14.1649C91.8739 13.9889 91.5459 13.9009 91.1939 13.9009C90.8499 13.9009 90.5219 13.9889 90.2099 14.1649C89.9059 14.3409 89.6579 14.5969 89.4659 14.9329C89.2819 15.2689 89.1899 15.6649 89.1899 16.1209C89.1899 16.5769 89.2819 16.9769 89.4659 17.3209C89.6579 17.6569 89.9059 17.9129 90.2099 18.0889C90.5219 18.2649 90.8499 18.3529 91.1939 18.3529C91.5459 18.3529 91.8739 18.2649 92.1779 18.0889C92.4899 17.9049 92.7379 17.6409 92.9219 17.2969C93.1139 16.9529 93.2099 16.5529 93.2099 16.0969ZM97.3227 13.7929C97.5547 13.4889 97.8707 13.2329 98.2707 13.0249C98.6707 12.8169 99.1227 12.7129 99.6267 12.7129C100.203 12.7129 100.727 12.8569 101.199 13.1449C101.679 13.4249 102.055 13.8209 102.327 14.3329C102.599 14.8449 102.735 15.4329 102.735 16.0969C102.735 16.7609 102.599 17.3569 102.327 17.8849C102.055 18.4049 101.679 18.8129 101.199 19.1089C100.727 19.3969 100.203 19.5409 99.6267 19.5409C99.1227 19.5409 98.6747 19.4409 98.2827 19.2409C97.8907 19.0329 97.5707 18.7769 97.3227 18.4729V22.5769H95.9547V12.8209H97.3227V13.7929ZM101.343 16.0969C101.343 15.6409 101.247 15.2489 101.055 14.9209C100.871 14.5849 100.623 14.3329 100.311 14.1649C100.007 13.9889 99.6787 13.9009 99.3267 13.9009C98.9827 13.9009 98.6547 13.9889 98.3427 14.1649C98.0387 14.3409 97.7907 14.5969 97.5987 14.9329C97.4147 15.2689 97.3227 15.6649 97.3227 16.1209C97.3227 16.5769 97.4147 16.9769 97.5987 17.3209C97.7907 17.6569 98.0387 17.9129 98.3427 18.0889C98.6547 18.2649 98.9827 18.3529 99.3267 18.3529C99.6787 18.3529 100.007 18.2649 100.311 18.0889C100.623 17.9049 100.871 17.6409 101.055 17.2969C101.247 16.9529 101.343 16.5529 101.343 16.0969ZM47.752 30.4329H46.384L42.268 24.2049V30.4329H40.9V22.0809H42.268L46.384 28.2969V22.0809H47.752V30.4329ZM52.4164 30.5409C51.7924 30.5409 51.2284 30.4009 50.7244 30.1209C50.2204 29.8329 49.8244 29.4329 49.5364 28.9209C49.2484 28.4009 49.1044 27.8009 49.1044 27.1209C49.1044 26.4489 49.2524 25.8529 49.5484 25.3329C49.8444 24.8129 50.2484 24.4129 50.7604 24.1329C51.2724 23.8529 51.8444 23.7129 52.4764 23.7129C53.1084 23.7129 53.6804 23.8529 54.1924 24.1329C54.7044 24.4129 55.1084 24.8129 55.4044 25.3329C55.7004 25.8529 55.8484 26.4489 55.8484 27.1209C55.8484 27.7929 55.6964 28.3889 55.3924 28.9089C55.0884 29.4289 54.6724 29.8329 54.1444 30.1209C53.6244 30.4009 53.0484 30.5409 52.4164 30.5409ZM52.4164 29.3529C52.7684 29.3529 53.0964 29.2689 53.4004 29.1009C53.7124 28.9329 53.9644 28.6809 54.1564 28.3449C54.3484 28.0089 54.4444 27.6009 54.4444 27.1209C54.4444 26.6409 54.3524 26.2369 54.1684 25.9089C53.9844 25.5729 53.7404 25.3209 53.4364 25.1529C53.1324 24.9849 52.8044 24.9009 52.4524 24.9009C52.1004 24.9009 51.7724 24.9849 51.4684 25.1529C51.1724 25.3209 50.9364 25.5729 50.7604 25.9089C50.5844 26.2369 50.4964 26.6409 50.4964 27.1209C50.4964 27.8329 50.6764 28.3849 51.0364 28.7769C51.4044 29.1609 51.8644 29.3529 52.4164 29.3529ZM66.0808 23.8209L64.0288 30.4329H62.5888L61.2568 25.5489L59.9248 30.4329H58.4848L56.4208 23.8209H57.8128L59.1928 29.1369L60.5968 23.8209H62.0248L63.3688 29.1129L64.7368 23.8209H66.0808Z" fill="white"/>
<defs>
<linearGradient id="paint0_linear_650_429" x1="23.9999" y1="32.2491" x2="23.9999" y2="9.34592" gradientUnits="userSpaceOnUse">
<stop stop-color="#20B038"/>
<stop offset="1" stop-color="#60D66A"/>
</linearGradient>
<clipPath id="clip0_650_429">
<rect width="24" height="24" fill="white" transform="translate(12 8.93286)"/>
</clipPath>
</defs>
</svg>
