<svg width="21" height="20" viewBox="0 0 21 20" fill="none" xmlns="http://www.w3.org/2000/svg">
<path fill-rule="evenodd" clip-rule="evenodd" d="M10.5 20C16.023 20 20.5 15.523 20.5 10C20.5 4.477 16.023 0 10.5 0C4.977 0 0.5 4.477 0.5 10C0.5 15.523 4.977 20 10.5 20ZM13.5 8C13.5 8.79565 13.1839 9.55871 12.6213 10.1213C12.0587 10.6839 11.2956 11 10.5 11C9.70435 11 8.94129 10.6839 8.37868 10.1213C7.81607 9.55871 7.5 8.79565 7.5 8C7.5 7.20435 7.81607 6.44129 8.37868 5.87868C8.94129 5.31607 9.70435 5 10.5 5C11.2956 5 12.0587 5.31607 12.6213 5.87868C13.1839 6.44129 13.5 7.20435 13.5 8ZM4.5 15C5.19801 14.0679 6.10377 13.3114 7.14532 12.7906C8.18687 12.2699 9.33551 11.9991 10.5 12C11.6645 11.9991 12.8131 12.2699 13.8547 12.7906C14.8962 13.3114 15.802 14.0679 16.5 15C15.802 15.9321 14.8962 16.6886 13.8547 17.2094C12.8131 17.7301 11.6645 18.0009 10.5 18C9.33551 18.0009 8.18687 17.7301 7.14532 17.2094C6.10377 16.6886 5.19801 15.9321 4.5 15Z" fill="#00FFBB"/>
</svg>
