<svg width="21" height="20" viewBox="0 0 21 20" fill="none" xmlns="http://www.w3.org/2000/svg">
<path d="M10.5 0C4.975 0 0.5 4.475 0.5 10C0.5 15.525 4.975 20 10.5 20C16.025 20 20.5 15.525 20.5 10C20.5 4.475 16.025 0 10.5 0ZM10.5 3C12.155 3 13.5 4.345 13.5 6C13.5 7.66 12.155 9 10.5 9C8.845 9 7.5 7.66 7.5 6C7.5 4.345 8.845 3 10.5 3ZM10.5 17.2C7.995 17.2 5.795 15.92 4.5 13.98C4.525 11.995 8.505 10.9 10.5 10.9C12.495 10.9 16.47 11.995 16.5 13.98C15.205 15.92 13.005 17.2 10.5 17.2Z" fill="white"/>
</svg>
