<svg width="17" height="17" viewBox="0 0 17 17" fill="none" xmlns="http://www.w3.org/2000/svg">
<path d="M8.22273 1.97532C8.30486 1.92057 8.40136 1.89136 8.50007 1.89136C8.59877 1.89136 8.69527 1.92057 8.7774 1.97532L14.7774 5.97532C14.8328 6.01139 14.8805 6.0581 14.9178 6.11273C14.955 6.16737 14.9811 6.22885 14.9944 6.29362C15.0077 6.35839 15.0081 6.42515 14.9954 6.49005C14.9827 6.55496 14.9573 6.6167 14.9207 6.67172C14.884 6.72674 14.8368 6.77394 14.7817 6.81058C14.7267 6.84722 14.6649 6.87258 14.6 6.88519C14.5351 6.8978 14.4683 6.89741 14.4036 6.88405C14.3388 6.87068 14.2773 6.8446 14.2227 6.80732L8.50007 2.99199L2.7774 6.80732C2.66706 6.87914 2.53284 6.90454 2.40389 6.87802C2.27493 6.85149 2.16165 6.77517 2.08862 6.66562C2.01559 6.55608 1.98871 6.42215 2.01382 6.29291C2.03893 6.16367 2.114 6.04955 2.22273 5.97532L8.22273 1.97532Z" fill="white"/>
<path fill-rule="evenodd" clip-rule="evenodd" d="M14 7.27936V13.8914H14.5C14.6326 13.8914 14.7598 13.944 14.8536 14.0378C14.9473 14.1316 15 14.2588 15 14.3914C15 14.524 14.9473 14.6511 14.8536 14.7449C14.7598 14.8387 14.6326 14.8914 14.5 14.8914H2.5C2.36739 14.8914 2.24021 14.8387 2.14645 14.7449C2.05268 14.6511 2 14.524 2 14.3914C2 14.2588 2.05268 14.1316 2.14645 14.0378C2.24021 13.944 2.36739 13.8914 2.5 13.8914H3V7.27936C3.00015 7.16027 3.04281 7.04514 3.1203 6.9547C3.19778 6.86426 3.30501 6.80445 3.42267 6.78603C5.1023 6.52284 6.79988 6.39088 8.5 6.39136C10.2267 6.39136 11.9227 6.52603 13.5773 6.78603C13.695 6.80445 13.8022 6.86426 13.8797 6.9547C13.9572 7.04514 13.9998 7.16027 14 7.27936ZM9 8.89136C9 8.75875 8.94732 8.63157 8.85355 8.53781C8.75979 8.44404 8.63261 8.39136 8.5 8.39136C8.36739 8.39136 8.24022 8.44404 8.14645 8.53781C8.05268 8.63157 8 8.75875 8 8.89136V13.3914C8 13.524 8.05268 13.6511 8.14645 13.7449C8.24022 13.8387 8.36739 13.8914 8.5 13.8914C8.63261 13.8914 8.75979 13.8387 8.85355 13.7449C8.94732 13.6511 9 13.524 9 13.3914V8.89136ZM11 8.39136C11.1326 8.39136 11.2598 8.44404 11.3536 8.53781C11.4473 8.63157 11.5 8.75875 11.5 8.89136V13.3914C11.5 13.524 11.4473 13.6511 11.3536 13.7449C11.2598 13.8387 11.1326 13.8914 11 13.8914C10.8674 13.8914 10.7402 13.8387 10.6464 13.7449C10.5527 13.6511 10.5 13.524 10.5 13.3914V8.89136C10.5 8.75875 10.5527 8.63157 10.6464 8.53781C10.7402 8.44404 10.8674 8.39136 11 8.39136ZM6.5 8.89136C6.5 8.75875 6.44732 8.63157 6.35355 8.53781C6.25979 8.44404 6.13261 8.39136 6 8.39136C5.86739 8.39136 5.74021 8.44404 5.64645 8.53781C5.55268 8.63157 5.5 8.75875 5.5 8.89136V13.3914C5.5 13.524 5.55268 13.6511 5.64645 13.7449C5.74021 13.8387 5.86739 13.8914 6 13.8914C6.13261 13.8914 6.25979 13.8387 6.35355 13.7449C6.44732 13.6511 6.5 13.524 6.5 13.3914V8.89136Z" fill="white"/>
<path d="M8.5 5.64136C8.69891 5.64136 8.88968 5.56234 9.03033 5.42169C9.17098 5.28104 9.25 5.09027 9.25 4.89136C9.25 4.69245 9.17098 4.50168 9.03033 4.36103C8.88968 4.22038 8.69891 4.14136 8.5 4.14136C8.30109 4.14136 8.11032 4.22038 7.96967 4.36103C7.82902 4.50168 7.75 4.69245 7.75 4.89136C7.75 5.09027 7.82902 5.28104 7.96967 5.42169C8.11032 5.56234 8.30109 5.64136 8.5 5.64136Z" fill="white"/>
</svg>
