<svg width="20" height="24" viewBox="0 0 20 24" fill="none" xmlns="http://www.w3.org/2000/svg">
<path d="M3.8876 2.75625L3.4376 4.03125H4.31885L3.8876 2.75625ZM3.8876 2.75625L3.4376 4.03125L3.8876 2.75625ZM18.0063 0.7875H1.99385C1.5626 0.7875 1.20635 1.125 1.20635 1.5375V22.4813C1.20635 22.8938 1.5626 23.2313 1.99385 23.2313H18.0063C18.4376 23.2313 18.7938 22.8938 18.7938 22.4813V1.51875C18.7938 1.125 18.4376 0.7875 18.0063 0.7875ZM4.73135 5.25L4.50635 4.575H3.2501L3.00635 5.25H2.25635L3.4751 2.025H4.28135L5.5001 5.25H4.73135ZM8.1626 16.4625L10.0001 13.65L11.8376 16.4625H8.1626ZM12.1001 14.3063C11.1063 14.3063 10.2626 13.6688 10.0001 12.8063C9.7376 13.6688 8.89385 14.3063 7.9001 14.3063C6.68135 14.3063 5.70635 13.3687 5.70635 12.225C5.70635 11.0812 6.68135 10.1625 7.9001 10.1625C7.9376 10.1625 7.9751 10.1625 8.03135 10.1625C7.9751 9.99375 7.95635 9.80625 7.95635 9.61875C7.95635 8.5875 8.8376 7.7625 9.9251 7.7625C11.0126 7.7625 11.8938 8.60625 11.8938 9.61875C11.8938 9.825 11.8563 10.0125 11.8001 10.1812C11.8938 10.1625 12.0063 10.1625 12.1001 10.1625C13.3188 10.1625 14.2938 11.1 14.2938 12.225C14.2938 13.3875 13.3188 14.3063 12.1001 14.3063ZM16.4313 21.75H15.6251L14.4251 18.525H15.1938L15.4188 19.2H16.6751L16.9001 18.525H17.6501L16.4313 21.75ZM16.0376 21.0187L16.4876 19.7438H15.6063L16.0376 21.0187ZM8.1626 16.4625L10.0001 13.65L8.1626 16.4625ZM16.0376 21.0187L16.4876 19.7438L16.0376 21.0187ZM18.2313 0H1.76885C1.0001 0 0.381348 0.58125 0.381348 1.3125V22.6875C0.381348 23.4188 1.0001 24 1.76885 24H18.2501C19.0188 24 19.6376 23.4188 19.6376 22.6875V1.3125C19.6188 0.58125 19.0001 0 18.2313 0ZM19.2251 22.6875C19.2251 23.2125 18.7751 23.625 18.2313 23.625H1.76885C1.2251 23.625 0.775098 23.2125 0.775098 22.6875V1.3125C0.775098 0.7875 1.2251 0.375 1.76885 0.375H18.2501C18.7938 0.375 19.2438 0.7875 19.2438 1.3125V22.6875H19.2251Z" fill="white"/>
</svg>
