<svg width="24" height="24" viewBox="0 0 24 24" fill="none" xmlns="http://www.w3.org/2000/svg">
<path fill-rule="evenodd" clip-rule="evenodd" d="M16.1404 6.34366C14.0311 4.89057 12.2342 2.82811 12.0155 2C11.7655 2.84373 10.1405 4.84369 7.85934 6.29679C5.50001 7.81238 1.96883 9.2186 2.00008 12.9841C2.04696 19.5934 8.90619 21.109 11.703 15.8903C11.6249 17.6247 11.1561 20.8277 9.5468 21.2184C9.40618 21.2496 9.24994 21.4527 9.40618 21.5308C10.5312 22.234 13.9998 21.9527 14.5155 21.8433C15.1561 21.7027 14.8123 21.4058 14.7654 21.3746C13.5311 20.7184 12.453 18.4684 12.3436 15.9997C15.1092 20.8434 21.9528 19.5621 21.9997 12.9998C22.0309 9.24985 18.4529 7.93738 16.1404 6.34366Z" fill="white"/>
</svg>
