<svg width="32" height="32" viewBox="0 0 32 32" fill="none" xmlns="http://www.w3.org/2000/svg">
<path d="M28.7482 22.2836L7.31643 27.2514C7.067 26.1754 5.99249 25.5053 4.91646 25.7547L1.75509 12.1163C2.83112 11.8669 3.50123 10.7924 3.25181 9.71634L24.6836 4.74848C24.933 5.82451 26.0075 6.49462 27.0835 6.24519L30.2449 19.8836C29.1689 20.133 28.4988 21.2075 28.7482 22.2836Z" fill="#FF4646"/>
<path d="M16.0065 22.6708L9.18728 24.2515C8.64924 24.3762 8.11202 24.0412 7.9873 23.5032L6.40662 16.684L15.1742 14.6517L16.7548 21.4708C16.8796 22.0089 16.5445 22.5461 16.0065 22.6708Z" fill="#A5C3DC"/>
<path d="M11.1357 23.7999L8.21316 24.4773C7.67512 24.6021 7.1379 24.267 7.01318 23.729L5.4325 16.9098L10.3033 15.7807L11.884 22.5999C12.0088 23.138 11.6737 23.6752 11.1357 23.7999Z" fill="#E6E6EB"/>
<path d="M10.3033 15.7807L5.4325 16.9098L5.65831 17.884L10.5292 16.7549L10.3033 15.7807Z" fill="#A5C3DC"/>
<path d="M4.38076 14.5872L15.0966 12.1032C15.3656 12.0409 15.6343 12.2084 15.6966 12.4774L16.0354 13.9387C16.0977 14.2077 15.9302 14.4763 15.6612 14.5387L4.94529 17.0226C4.6763 17.0849 4.40765 16.9174 4.3453 16.6484L4.00658 15.1872C3.94423 14.9182 4.11177 14.6495 4.38076 14.5872Z" fill="#A5C3DC"/>
<path d="M4.38076 14.5872L9.7387 13.3452C10.0077 13.2828 10.2763 13.4504 10.3387 13.7194L10.6774 15.1806C10.7398 15.4496 10.5722 15.7183 10.3032 15.7806L4.94529 17.0226C4.6763 17.0849 4.40765 16.9174 4.3453 16.6484L4.00658 15.1872C3.94423 14.9182 4.11177 14.6495 4.38076 14.5872Z" fill="#E6E6EB"/>
<path d="M8.35491 16.2323L7.38074 16.4581L9.18723 24.2515L10.1614 24.0257L8.35491 16.2323Z" fill="#463C4B"/>
<path d="M8.35491 16.2323L7.38074 16.4581L7.60655 17.4323L8.58072 17.2065L8.35491 16.2323Z" fill="#32283C"/>
<path d="M7.30339 13.9098L6.32922 14.1356L6.89375 16.571L7.86792 16.3452L7.30339 13.9098Z" fill="#463C4B"/>
<path d="M13.1484 12.5549L12.1742 12.7808L12.7387 15.2162L13.7129 14.9904L13.1484 12.5549Z" fill="#32283C"/>
<path d="M13.2258 15.1033L12.2516 15.3291L14.0581 23.1225L15.0323 22.8967L13.2258 15.1033Z" fill="#32283C"/>
<path d="M12.6015 9.08885C11.6862 9.30101 10.9082 9.85693 10.4109 10.6543L9.46615 12.1693L7.9511 11.2244C7.15379 10.7272 6.21055 10.5703 5.29525 10.7824C4.35524 11.0003 3.76773 11.9424 3.98563 12.8824C4.20352 13.8224 5.14558 14.4099 6.0856 14.192L13.3919 12.4984C14.3319 12.2806 14.9194 11.3385 14.7015 10.3985C14.4836 9.45846 13.5415 8.87096 12.6015 9.08885ZM5.85978 13.2179C5.4569 13.3113 5.05318 13.0595 4.9598 12.6566C4.86641 12.2537 5.11818 11.85 5.52107 11.7566C6.1762 11.6048 6.85131 11.7171 7.42192 12.073L8.33704 12.6436L5.85978 13.2179ZM13.1661 11.5243L10.6888 12.0985L11.2594 11.1835C11.6154 10.6128 12.1722 10.2149 12.8273 10.063C13.2302 9.96963 13.6339 10.2214 13.7273 10.6243C13.8207 11.0272 13.5689 11.4309 13.1661 11.5243Z" fill="#32283C"/>
<path d="M17.3418 8.50331L16.3677 8.72913L16.8193 10.6775L17.7935 10.4517L17.3418 8.50331Z" fill="#E6E6EB"/>
<path d="M16.8902 6.55495L15.916 6.78076L16.1418 7.75493L17.116 7.52912L16.8902 6.55495Z" fill="#E6E6EB"/>
<path d="M20.7291 23.1159L19.7549 23.3417L19.9807 24.3158L20.9549 24.09L20.7291 23.1159Z" fill="#E6E6EB"/>
<path d="M18.0192 11.4258L17.045 11.6516L17.4967 13.6L18.4708 13.3741L18.0192 11.4258Z" fill="#E6E6EB"/>
<path d="M18.6967 14.3483L17.7225 14.5741L18.1742 16.5224L19.1483 16.2966L18.6967 14.3483Z" fill="#E6E6EB"/>
<path d="M19.3741 17.2708L18.3999 17.4966L18.8515 19.4449L19.8257 19.2191L19.3741 17.2708Z" fill="#E6E6EB"/>
<path d="M20.0516 20.1934L19.0774 20.4192L19.529 22.3675L20.5032 22.1417L20.0516 20.1934Z" fill="#E6E6EB"/>
<path d="M21.5062 13.1838C20.7005 13.3705 19.893 12.867 19.7063 12.0612C19.5195 11.2555 20.0231 10.448 20.8288 10.2613C21.6345 10.0745 22.442 10.578 22.6288 11.3838C22.8156 12.1896 22.3119 12.997 21.5062 13.1838ZM21.0546 11.2354C20.7861 11.2977 20.6182 11.5669 20.6804 11.8354C20.7427 12.104 21.0119 12.2719 21.2804 12.2096C21.549 12.1473 21.7169 11.8782 21.6546 11.6096C21.5924 11.341 21.3232 11.1732 21.0546 11.2354Z" fill="#E6E6EB"/>
<path d="M26.7578 18.1255C25.9521 18.3123 25.1446 17.8088 24.9579 17.003C24.7711 16.1972 25.2747 15.3898 26.0804 15.203C26.8861 15.0163 27.6936 15.5198 27.8804 16.3256C28.0671 17.1313 27.5635 17.9388 26.7578 18.1255ZM26.3062 16.1772C26.0376 16.2395 25.8698 16.5086 25.932 16.7772C25.9943 17.0458 26.2635 17.2136 26.532 17.1514C26.8006 17.0891 26.9685 16.8199 26.9062 16.5514C26.8439 16.2828 26.5748 16.1149 26.3062 16.1772Z" fill="#E6E6EB"/>
<path d="M22.8608 19.029C22.7876 19.046 22.7095 19.0466 22.6314 19.0279C22.363 18.9633 22.1976 18.6934 22.2621 18.4249L24.3523 9.72828C24.4169 9.45976 24.6868 9.29455 24.9553 9.35895C25.2238 9.4235 25.3891 9.69345 25.3246 9.96195L23.2344 18.6586C23.1886 18.849 23.0395 18.9876 22.8608 19.029Z" fill="#E6E6EB"/>
</svg>
