<svg width="25" height="24" viewBox="0 0 25 24" fill="none" xmlns="http://www.w3.org/2000/svg">
<g clip-path="url(#clip0_650_1336)">
<path d="M23 0H2C1.175 0 0.5 0.675 0.5 1.5V22.5C0.5 23.325 1.175 24 2 24H23C23.825 24 24.5 23.325 24.5 22.5V1.5C24.5 0.675 23.825 0 23 0ZM7.2125 20.55C6.3125 21.45 4.85 21.45 3.95 20.55C3.05 19.65 3.05 18.1875 3.95 17.2875C4.85 16.3875 6.3125 16.3875 7.2125 17.2875C8.1125 18.1875 8.1125 19.65 7.2125 20.55ZM7.2125 6.65625C6.3125 7.55625 4.85 7.55625 3.95 6.65625C3.05 5.75625 3.05 4.29375 3.95 3.39375C4.85 2.49375 6.3125 2.49375 7.2125 3.39375C8.1125 4.29375 8.1125 5.75625 7.2125 6.65625ZM14.1312 13.6312C13.2312 14.5312 11.7688 14.5312 10.8687 13.6312C9.96875 12.7312 9.96875 11.2688 10.8687 10.3687C11.7688 9.46875 13.2312 9.46875 14.1312 10.3687C15.0312 11.2688 15.0312 12.7312 14.1312 13.6312ZM21.1063 20.55C20.2063 21.45 18.7437 21.45 17.8438 20.55C16.9438 19.65 16.9438 18.1875 17.8438 17.2875C18.7437 16.3875 20.2063 16.3875 21.1063 17.2875C22.0063 18.1875 22.0063 19.65 21.1063 20.55ZM21.1063 6.65625C20.2063 7.55625 18.7437 7.55625 17.8438 6.65625C16.9438 5.75625 16.9438 4.29375 17.8438 3.39375C18.7437 2.49375 20.2063 2.49375 21.1063 3.39375C22.0063 4.29375 22.0063 5.75625 21.1063 6.65625Z" fill="white"/>
</g>
<defs>
<clipPath id="clip0_650_1336">
<rect width="24" height="24" fill="white" transform="translate(0.5)"/>
</clipPath>
</defs>
</svg>
