<svg width="25" height="24" viewBox="0 0 25 24" fill="none" xmlns="http://www.w3.org/2000/svg">
<path d="M22.2518 3.44105L20.8898 5.76155L15.3428 3.59143C15.3894 3.00407 15.6065 2.4431 15.9675 1.97744C16.3285 1.51178 16.8177 1.16169 17.3749 0.970178C16.9822 0.824237 16.5665 0.749689 16.1475 0.750053C15.5704 0.740878 15.0009 0.882533 14.4953 1.16101C13.9897 1.43948 13.5656 1.84512 13.2649 2.3378C13.8254 2.6255 14.3123 3.03818 14.688 3.54396C15.0636 4.04975 15.318 4.63511 15.4315 5.25484C15.545 5.87457 15.5145 6.51209 15.3424 7.11817C15.1703 7.72425 14.8612 8.28267 14.439 8.7503C14.4833 8.73455 14.529 8.72518 14.5729 8.70793L16.3425 8.01568C16.6239 8.33493 16.9719 8.58855 17.3619 8.75863C17.752 8.92872 18.1746 9.01113 18.6 9.00005C18.9484 8.99971 19.2945 8.9431 19.6249 8.83243C19.2633 8.72605 18.9311 8.53771 18.6542 8.28204C18.3772 8.02637 18.163 7.71026 18.0281 7.3583L20.8898 6.23855L22.2518 8.55905C22.8045 9.50105 23.7499 8.83393 23.7499 7.50193V7.49518C23.7499 6.66943 23.3569 6.00005 22.8724 6.00005C23.3569 6.00005 23.7499 5.33068 23.7499 4.50493V4.50005C23.7499 3.16618 22.8045 2.49905 22.2518 3.44105Z" fill="white"/>
<path d="M14.7499 6.00006C14.7493 5.3826 14.5794 4.77712 14.2586 4.24955C13.9378 3.72197 13.4784 3.29252 12.9304 3.00793C11.964 3.03091 11.0347 3.38428 10.2971 4.00918L9.26327 4.88556C9.10231 5.02325 8.97309 5.19416 8.88448 5.38655C8.79588 5.57894 8.75 5.78825 8.75 6.00006C8.75 6.21187 8.79588 6.42117 8.88448 6.61357C8.97309 6.80596 9.10231 6.97687 9.26327 7.11456L10.2971 7.99093C11.032 8.61553 11.9581 8.97048 12.9221 8.99706C13.4724 8.71322 13.934 8.28348 14.2563 7.75489C14.5787 7.22629 14.7495 6.6192 14.7499 6.00006ZM12.1249 7.12506C11.9024 7.12506 11.6849 7.05908 11.4999 6.93546C11.3149 6.81185 11.1707 6.63615 11.0855 6.43058C11.0004 6.22501 10.9781 5.99881 11.0215 5.78058C11.0649 5.56235 11.1721 5.3619 11.3294 5.20456C11.4867 5.04723 11.6872 4.94008 11.9054 4.89668C12.1237 4.85327 12.3498 4.87555 12.5554 4.96069C12.761 5.04584 12.9367 5.19004 13.0603 5.37504C13.1839 5.56005 13.2499 5.77756 13.2499 6.00006C13.2499 6.29843 13.1314 6.58458 12.9204 6.79555C12.7094 7.00653 12.4233 7.12506 12.1249 7.12506ZM22.8326 18.6679L20.2286 19.3459L17.8406 13.8889C18.2889 13.5066 18.8391 13.2636 19.4236 13.1895C20.0081 13.1155 20.6015 13.2138 21.1309 13.4723C20.9562 13.0915 20.7149 12.7449 20.4184 12.4489C20.0168 12.0343 19.514 11.7318 18.9596 11.5711C18.4052 11.4105 17.8185 11.3974 17.2575 11.5332C17.4506 12.1331 17.5032 12.7695 17.4112 13.393C17.3192 14.0165 17.0851 14.6105 16.727 15.1291C16.3688 15.6477 15.8963 16.0771 15.3458 16.384C14.7953 16.6909 14.1816 16.8671 13.5521 16.8991C13.5945 16.9193 13.6331 16.9452 13.6766 16.9639L15.4174 17.7256C15.3908 18.15 15.4576 18.5752 15.6131 18.9711C15.7686 19.3669 16.009 19.7239 16.3174 20.0168C16.564 20.263 16.8488 20.4676 17.1608 20.6228C16.9801 20.2917 16.8784 19.9234 16.8635 19.5465C16.8486 19.1696 16.9209 18.7944 17.0749 18.4501L19.89 19.6819L19.2124 22.2871C18.9371 23.3442 20.0771 23.5407 21.0191 22.5991L21.024 22.5942C21.6079 22.0103 21.8033 21.2592 21.4605 20.9164C21.8033 21.2592 22.5544 21.0634 23.1383 20.4796L23.1431 20.4747C24.0874 19.5331 23.8894 18.3931 22.8326 18.6679Z" fill="white"/>
<path d="M16.5473 11.7709C15.8478 11.1036 14.9408 10.6961 13.9774 10.6163L12.6274 10.5037C12.4164 10.4876 12.2045 10.5173 12.0061 10.5907C11.8077 10.6642 11.6275 10.7797 11.4779 10.9293C11.3283 11.0789 11.2128 11.259 11.1394 11.4574C11.0659 11.6559 11.0363 11.8678 11.0524 12.0787L11.1649 13.4288C11.2427 14.3894 11.6462 15.2948 12.3086 15.9949C12.8969 16.1829 13.5256 16.2056 14.1259 16.0604C14.7263 15.9153 15.2752 15.608 15.7126 15.172C16.1501 14.736 16.4593 14.1882 16.6065 13.5884C16.7537 12.9886 16.7332 12.3598 16.5473 11.7709ZM14.6576 14.1124C14.5003 14.2697 14.2998 14.3768 14.0816 14.4202C13.8634 14.4636 13.6372 14.4413 13.4316 14.3562C13.2261 14.271 13.0504 14.1268 12.9268 13.9418C12.8032 13.7568 12.7372 13.5393 12.7372 13.3168C12.7372 13.0943 12.8032 12.8768 12.9268 12.6918C13.0504 12.5068 13.2261 12.3626 13.4316 12.2775C13.6372 12.1923 13.8634 12.17 14.0816 12.2134C14.2998 12.2568 14.5003 12.3639 14.6576 12.5212C14.7621 12.6257 14.845 12.7497 14.9016 12.8862C14.9581 13.0228 14.9872 13.1691 14.9872 13.3168C14.9872 13.4646 14.9581 13.6109 14.9016 13.7474C14.845 13.8839 14.7621 14.0079 14.6576 14.1124ZM7.42389 12.3127C7.3633 12.281 7.29518 12.2664 7.2269 12.2706C7.15862 12.2747 7.09278 12.2975 7.03651 12.3364L6.21939 12.903C6.17889 12.9311 6.14433 12.9668 6.11766 13.0082C6.091 13.0497 6.07276 13.0959 6.06398 13.1444C6.05521 13.1929 6.05607 13.2426 6.06652 13.2908C6.07697 13.3389 6.0968 13.3845 6.12489 13.425C6.15292 13.4655 6.18866 13.5001 6.23007 13.5268C6.27148 13.5535 6.31775 13.5718 6.36622 13.5806C6.4147 13.5894 6.46444 13.5886 6.5126 13.5782C6.56076 13.5677 6.60639 13.5479 6.64689 13.5199L6.87489 13.3612V15C6.87494 15.2097 6.83104 15.417 6.74602 15.6087C6.66099 15.8003 6.53674 15.972 6.38126 16.1127C6.22579 16.2534 6.04255 16.3599 5.84337 16.4254C5.64419 16.4908 5.4335 16.5138 5.22489 16.4929C4.84735 16.4448 4.50083 16.2591 4.25171 15.9714C4.0026 15.6837 3.86842 15.3142 3.87489 14.9336V8.21625C4.39894 8.12811 4.87482 7.85712 5.21801 7.45138C5.56121 7.04565 5.74953 6.53142 5.74953 6C5.74953 5.46858 5.56121 4.95435 5.21801 4.54862C4.87482 4.14288 4.39894 3.87189 3.87489 3.78375V1.125C3.87489 1.02554 3.83538 0.930161 3.76505 0.859835C3.69472 0.789509 3.59934 0.75 3.49989 0.75C3.40043 0.75 3.30505 0.789509 3.23472 0.859835C3.16439 0.930161 3.12489 1.02554 3.12489 1.125V3.78375C2.60083 3.87189 2.12495 4.14288 1.78176 4.54862C1.43856 4.95435 1.25024 5.46858 1.25024 6C1.25024 6.53142 1.43856 7.04565 1.78176 7.45138C2.12495 7.85712 2.60083 8.12811 3.12489 8.21625V14.9216C3.11686 15.4776 3.31031 16.0177 3.6695 16.4422C4.02869 16.8667 4.52936 17.1468 5.07901 17.2309C5.39666 17.2726 5.71957 17.2462 6.02617 17.1532C6.33277 17.0602 6.61601 16.9029 6.85697 16.6918C7.09793 16.4806 7.29108 16.2205 7.4235 15.9288C7.55592 15.637 7.62458 15.3204 7.62489 15V12.645C7.6249 12.5765 7.60617 12.5094 7.57074 12.4508C7.53531 12.3923 7.48452 12.3445 7.42389 12.3127ZM2.74989 6C2.74989 5.85166 2.79387 5.70666 2.87628 5.58332C2.95869 5.45999 3.07583 5.36386 3.21287 5.30709C3.34992 5.25032 3.50072 5.23547 3.6462 5.26441C3.79169 5.29335 3.92533 5.36478 4.03022 5.46967C4.1351 5.57456 4.20654 5.7082 4.23547 5.85368C4.26441 5.99917 4.24956 6.14997 4.1928 6.28701C4.13603 6.42406 4.0399 6.54119 3.91656 6.6236C3.79323 6.70601 3.64822 6.75 3.49989 6.75C3.30097 6.75 3.11021 6.67098 2.96956 6.53033C2.8289 6.38968 2.74989 6.19891 2.74989 6Z" fill="white"/>
<path d="M12.125 6.375C12.3321 6.375 12.5 6.20711 12.5 6C12.5 5.79289 12.3321 5.625 12.125 5.625C11.9179 5.625 11.75 5.79289 11.75 6C11.75 6.20711 11.9179 6.375 12.125 6.375Z" fill="white"/>
<path d="M13.625 13.5C13.8321 13.5 14 13.3321 14 13.125C14 12.9179 13.8321 12.75 13.625 12.75C13.4179 12.75 13.25 12.9179 13.25 13.125C13.25 13.3321 13.4179 13.5 13.625 13.5Z" fill="white"/>
</svg>
