<svg width="10" height="11" viewBox="0 0 10 11" fill="none" xmlns="http://www.w3.org/2000/svg">
<path fill-rule="evenodd" clip-rule="evenodd" d="M6.30748 0.297551C6.38069 0.3383 6.43814 0.402392 6.47067 0.479603C6.50321 0.556815 6.50895 0.642697 6.48698 0.723551L5.49098 4.37505H9.12498C9.19806 4.37506 9.26954 4.39641 9.33065 4.4365C9.39176 4.47659 9.43981 4.53365 9.46892 4.60069C9.49803 4.66772 9.50692 4.7418 9.49449 4.81382C9.48207 4.88583 9.44887 4.95265 9.39898 5.00605L4.14898 10.6311C4.09179 10.6924 4.01567 10.7329 3.93279 10.7459C3.84991 10.759 3.76505 10.7438 3.69178 10.7029C3.61852 10.662 3.56109 10.5977 3.52867 10.5204C3.49626 10.443 3.49073 10.357 3.51298 10.2761L4.50898 6.62505H0.874976C0.801896 6.62505 0.730409 6.60369 0.669304 6.5636C0.608198 6.52351 0.560138 6.46645 0.53103 6.39941C0.501922 6.33238 0.493035 6.2583 0.505461 6.18629C0.517888 6.11427 0.551087 6.04745 0.600976 5.99405L5.85098 0.369051C5.90816 0.307874 5.98417 0.267597 6.06691 0.254639C6.14964 0.241681 6.23433 0.256788 6.30748 0.297551Z" fill="#00DE31"/>
</svg>
