<svg width="22" height="20" viewBox="0 0 22 20" fill="none" xmlns="http://www.w3.org/2000/svg">
<path fill-rule="evenodd" clip-rule="evenodd" d="M12.41 3.99995H20C21.1 3.99995 22 4.88995 22 5.99995V18C22 19.1 21.1 20 20 20H2C0.9 20 0 19.1 0 18V5.99995C0 4.88995 0.9 3.99995 2 3.99995H9.59L6.65 1.05995C6.45 0.859951 6.45 0.549951 6.65 0.349951C6.85 0.149951 7.16 0.149951 7.36 0.349951L11 3.98995L14.64 0.349951C14.84 0.149951 15.15 0.149951 15.35 0.349951C15.55 0.549951 15.55 0.859951 15.35 1.05995L12.41 3.99995ZM11.0063 8C11.0937 8.33138 11.8125 9.1567 12.6562 9.73817C12.8271 9.85599 13.0153 9.96996 13.2084 10.087C14.0607 10.6033 15.0101 11.1783 14.9999 12.4017C14.9812 15.0277 12.2437 15.5404 11.1375 13.6022C11.1812 14.59 11.6125 15.4904 12.1062 15.753C12.125 15.7655 12.2625 15.8843 12.0062 15.9406C11.8 15.9843 10.4125 16.0969 9.96252 15.8155C9.90002 15.7842 9.96252 15.703 10.0188 15.6905C10.6625 15.5342 10.85 14.2524 10.8813 13.5584C9.76253 15.6467 7.01883 15.0402 7.00008 12.3954C6.98949 11.118 8.00302 10.5191 8.88686 9.99684C9.04558 9.90306 9.20011 9.81174 9.34378 9.71941C10.2563 9.13794 10.9063 8.33763 11.0063 8Z" fill="white"/>
</svg>
