<svg width="24" height="24" viewBox="0 0 24 24" fill="none" xmlns="http://www.w3.org/2000/svg">
<path d="M4.68486 19.3151C8.72514 23.3553 15.2747 23.3553 19.3149 19.3151C23.3552 15.2748 23.3552 8.72527 19.3149 4.68499C15.2747 0.644716 8.72514 0.644716 4.68486 4.68499C0.645411 8.72527 0.645411 15.2748 4.68486 19.3151ZM9.27383 5.56637L10.8131 7.10568C11.121 7.41354 11.1864 7.88941 10.9729 8.26927L10.3944 9.2963C10.3249 9.41944 10.2977 9.56196 10.317 9.70203C10.3363 9.84209 10.401 9.97196 10.5011 10.0718L13.9282 13.4988C14.0281 13.5988 14.158 13.6633 14.298 13.6825C14.4381 13.7016 14.5806 13.6743 14.7036 13.6047L15.7307 13.0262C15.9154 12.9221 16.1292 12.8813 16.3393 12.9102C16.5495 12.939 16.7444 13.0359 16.8942 13.186L18.4344 14.7261C18.6163 14.9084 18.7185 15.1554 18.7185 15.413C18.7185 15.6705 18.6163 15.9176 18.4344 16.0999L17.7053 16.829C17.3008 17.2325 16.7745 17.4912 16.2079 17.565C15.6414 17.6387 15.0663 17.5235 14.572 17.237L14.5025 17.1973C11.4811 15.4708 8.95392 12.997 7.16348 10.013L6.81341 9.42872C6.51586 8.93364 6.39243 8.35327 6.46276 7.77996C6.5331 7.20665 6.79315 6.67332 7.20155 6.26485L7.90003 5.56637C7.99019 5.47609 8.09727 5.40446 8.21513 5.3556C8.33299 5.30673 8.45934 5.28158 8.58693 5.28158C8.71452 5.28158 8.84086 5.30673 8.95873 5.3556C9.07659 5.40446 9.18366 5.47609 9.27383 5.56637Z" fill="white"/>
</svg>
