<svg width="25" height="24" viewBox="0 0 25 24" fill="none" xmlns="http://www.w3.org/2000/svg">
<g clip-path="url(#clip0_650_685)">
<path d="M0.5 4.76245V19.2375H24.5V4.76245H0.5ZM1.1375 18.6562V15.9C2.6 16.0687 3.7625 17.2125 3.93125 18.6562H1.1375ZM1.1375 8.09995V5.3437H3.93125C3.7625 6.78745 2.6 7.9312 1.1375 8.09995ZM12.5 18.1312C10.3438 18.1312 8.6 15.4687 8.6 12.1687C8.6 8.8687 10.3438 6.2062 12.5 6.2062C14.6562 6.2062 16.4 8.8687 16.4 12.1687C16.4 15.4687 14.6562 18.1312 12.5 18.1312ZM23.8625 18.6562H21.0687C21.2375 17.2125 22.4 16.0687 23.8625 15.9V18.6562ZM23.8625 8.09995C22.4 7.9312 21.2375 6.78745 21.0687 5.3437H23.8625V8.09995ZM14.0938 12.075C13.8687 11.9062 13.4562 11.7187 12.8187 11.4937V9.9937C13.0812 10.0125 13.2687 10.1062 13.3625 10.2937C13.4187 10.4062 13.4562 10.575 13.475 10.8H14.5438C14.525 10.1625 14.3 9.71245 13.85 9.4312C13.6062 9.26245 13.25 9.14995 12.8187 9.11245V8.58745H12.425V9.11245C12.1625 9.1312 11.9375 9.1687 11.8062 9.2062C11.5813 9.2812 11.3563 9.41245 11.1688 9.59995C11 9.74995 10.8875 9.9187 10.8125 10.125C10.7375 10.3312 10.7 10.5375 10.7 10.8C10.7 11.175 10.8125 11.4937 11.0187 11.7562C11.225 12.0187 11.6 12.225 12.1063 12.375L12.425 12.4687V14.1562C12.125 14.1 11.9187 13.9875 11.8062 13.8187C11.7312 13.7062 11.6938 13.4812 11.6562 13.1437H10.5688C10.55 13.875 10.7937 14.3812 11.2437 14.7C11.5062 14.8687 11.9 14.9812 12.425 15.0375V15.825H12.8187V15C13.2312 14.9625 13.5875 14.8687 13.9062 14.6812C14.4125 14.3812 14.6562 13.8937 14.6562 13.2375C14.6375 12.7312 14.45 12.3375 14.0938 12.075ZM12.4062 11.3812C12.2188 11.325 12.0688 11.25 11.975 11.175C11.8063 11.0437 11.7125 10.875 11.7125 10.65C11.7125 10.4437 11.7688 10.2937 11.8813 10.1812C11.9938 10.0687 12.1625 9.9937 12.4062 9.9937V11.3812ZM13.2687 13.9875C13.175 14.0625 13.025 14.1 12.8187 14.1375V12.6C13.0437 12.675 13.1937 12.75 13.2875 12.8437C13.4375 12.975 13.5125 13.1625 13.5125 13.3875C13.5125 13.65 13.4375 13.8562 13.2687 13.9875Z" fill="white"/>
</g>
<defs>
<clipPath id="clip0_650_685">
<rect width="24" height="24" fill="white" transform="translate(0.5)"/>
</clipPath>
</defs>
</svg>
