<svg width="25" height="24" viewBox="0 0 25 24" fill="none" xmlns="http://www.w3.org/2000/svg">
<path d="M12.5 4.48125C8.28125 4.48125 4.86875 7.9125 4.86875 12.1125C4.86875 16.3312 8.3 19.7438 12.5 19.7438C16.7 19.7438 20.1312 16.3125 20.1312 12.1125C20.1312 7.9125 16.7188 4.48125 12.5 4.48125ZM17.375 13.05C16.9062 13.05 16.5125 12.7688 16.3625 12.3563H14C13.8687 12.8813 13.4562 13.2937 12.9125 13.4062V15.7687C13.3625 15.9 13.6813 16.3125 13.6813 16.8C13.6813 17.4 13.1938 17.8875 12.5938 17.8875C11.9937 17.8875 11.5063 17.4 11.5063 16.8C11.5063 16.35 11.7875 15.9562 12.2 15.7875V13.3875C11.7125 13.2563 11.3188 12.8438 11.1875 12.3563H8.76875C8.6375 12.7875 8.225 13.1063 7.7375 13.1063C7.1375 13.1063 6.65 12.6187 6.65 12.0187C6.65 11.4187 7.1375 10.9312 7.7375 10.9312C8.20625 10.9312 8.6 11.2312 8.75 11.625H11.1688C11.3 11.1187 11.675 10.725 12.1812 10.5938V8.2125C11.75 8.0625 11.45 7.66875 11.45 7.18125C11.45 6.58125 11.9375 6.09375 12.5375 6.09375C13.1375 6.09375 13.625 6.58125 13.625 7.18125C13.625 7.65 13.325 8.04375 12.9125 8.19375V10.575C13.4375 10.6875 13.8687 11.1 14 11.625H16.3438C16.4937 11.1938 16.9062 10.875 17.375 10.875C17.975 10.875 18.4625 11.3625 18.4625 11.9625C18.4625 12.5625 17.975 13.05 17.375 13.05ZM12.5 0C5.88125 0 0.5 5.38125 0.5 12C0.5 18.6187 5.88125 24 12.5 24C19.1187 24 24.5 18.6187 24.5 12C24.5 5.38125 19.1187 0 12.5 0ZM23.3375 8.60625L21.5 9.35625C21.3125 8.775 21.0875 8.2125 20.8063 7.6875L22.6625 6.9375L23.3375 8.60625ZM19.8875 3.39375L21.1813 4.66875L19.7375 6.1125C19.3438 5.64375 18.9125 5.2125 18.4437 4.8375L19.8875 3.39375ZM15.9125 1.2L17.6 1.875L16.8312 3.76875C16.2875 3.4875 15.725 3.2625 15.1437 3.09375L15.9125 1.2ZM11.6375 0.73125H13.4562V2.775C13.1375 2.7375 12.8188 2.71875 12.5 2.71875C12.2188 2.71875 11.9188 2.7375 11.6375 2.75625V0.73125ZM9.10625 1.2375L9.875 3.09375C9.29375 3.2625 8.7125 3.4875 8.1875 3.76875L7.41875 1.9125L9.10625 1.2375ZM5.225 3.39375L6.6125 4.78125C6.14375 5.15625 5.69375 5.5875 5.3 6.0375L3.9125 4.65L5.225 3.39375ZM2.50625 6.825L4.26875 7.55625C3.96875 8.08125 3.725 8.64375 3.5375 9.225L1.79375 8.49375L2.50625 6.825ZM1.2875 11.1H3.14375C3.10625 11.4375 3.0875 11.775 3.0875 12.1312C3.0875 12.3937 3.10625 12.6562 3.125 12.9188H1.2875V11.1ZM1.75625 15.3937L3.44375 14.7188C3.6125 15.3188 3.8375 15.8813 4.1 16.4062L2.43125 17.0812L1.75625 15.3937ZM5.225 20.6063L3.93125 19.3312L5.1875 18.075C5.58125 18.5438 5.99375 18.975 6.4625 19.3688L5.225 20.6063ZM9.2 22.8L7.5125 22.125L8.16875 20.4938C8.7125 20.775 9.275 21 9.85625 21.1688L9.2 22.8ZM13.4562 23.2687H11.6375V21.4875C11.9188 21.5063 12.2 21.525 12.5 21.525C12.8188 21.525 13.1562 21.5063 13.4562 21.4688V23.2687ZM16.0062 22.7625L15.3312 21.0938C15.9125 20.9062 16.475 20.6812 17 20.3812L17.6937 22.0687L16.0062 22.7625ZM12.5 20.475C7.83125 20.475 4.025 16.6875 4.025 12C4.025 7.33125 7.83125 3.525 12.5 3.525C17.1688 3.525 20.975 7.33125 20.975 12C20.975 16.6688 17.1688 20.475 12.5 20.475ZM19.8875 20.6063L18.575 19.2938C19.0438 18.9 19.475 18.4688 19.85 18L21.1813 19.3312L19.8875 20.6063ZM22.6063 17.175L20.8625 16.4437C21.1437 15.9 21.3687 15.3375 21.5375 14.7562L23.3187 15.5062L22.6063 17.175ZM21.875 12.9C21.8937 12.6375 21.9125 12.375 21.9125 12.1125C21.9125 11.7562 21.8938 11.4187 21.8563 11.0812H23.825V12.9H21.875Z" fill="white"/>
</svg>
