<svg width="31" height="32" viewBox="0 0 31 32" fill="none" xmlns="http://www.w3.org/2000/svg">
<path d="M24.7041 23.2871L21.3041 19.8971C22.4011 18.4995 22.9964 16.7737 22.9941 14.9971C22.9941 13.4148 22.525 11.8681 21.6459 10.5525C20.7668 9.23692 19.5174 8.21154 18.0556 7.60604C16.5938 7.00054 14.9853 6.84211 13.4334 7.15079C11.8816 7.45947 10.4561 8.2214 9.33729 9.34022C8.21847 10.459 7.45654 11.8845 7.14786 13.4364C6.83918 14.9882 6.99761 16.5967 7.60311 18.0585C8.20861 19.5204 9.23399 20.7698 10.5496 21.6488C11.8652 22.5279 13.4119 22.9971 14.9941 22.9971C16.7708 22.9993 18.4966 22.4041 19.8941 21.3071L23.2841 24.7071C23.3771 24.8008 23.4877 24.8752 23.6096 24.926C23.7314 24.9767 23.8621 25.0029 23.9941 25.0029C24.1262 25.0029 24.2569 24.9767 24.3787 24.926C24.5006 24.8752 24.6112 24.8008 24.7041 24.7071C24.7979 24.6141 24.8723 24.5035 24.923 24.3817C24.9738 24.2598 24.9999 24.1291 24.9999 23.9971C24.9999 23.8651 24.9738 23.7344 24.923 23.6125C24.8723 23.4906 24.7979 23.38 24.7041 23.2871ZM8.99414 14.9971C8.99414 13.8104 9.34604 12.6503 10.0053 11.6637C10.6646 10.677 11.6017 9.90792 12.698 9.4538C13.7944 8.99967 15.0008 8.88085 16.1647 9.11236C17.3286 9.34387 18.3977 9.91532 19.2368 10.7544C20.0759 11.5935 20.6473 12.6626 20.8789 13.8265C21.1104 14.9904 20.9915 16.1968 20.5374 17.2932C20.0833 18.3895 19.3143 19.3266 18.3276 19.9859C17.3409 20.6452 16.1808 20.9971 14.9941 20.9971C13.4028 20.9971 11.8767 20.3649 10.7515 19.2397C9.62629 18.1145 8.99414 16.5884 8.99414 14.9971Z" fill="white"/>
</svg>
