<svg width="25" height="24" viewBox="0 0 25 24" fill="none" xmlns="http://www.w3.org/2000/svg">
<path d="M18.9688 10.5562C18.8 9.7875 18.5 9.075 18.0875 8.4375C17.5625 7.63125 16.8687 6.9375 16.0625 6.43125C15.2375 5.90625 14.3375 5.56875 13.3812 5.4375C13.1 5.4 12.8 5.38125 12.5 5.38125C11.825 5.38125 11.1687 5.475 10.5312 5.68125C9.96875 5.85 9.44375 6.09375 8.95625 6.4125C8.13125 6.91875 7.4375 7.6125 6.93125 8.41875C6.5 9.075 6.2 9.80625 6.03125 10.5562C5.91875 11.025 5.8625 11.5125 5.8625 12C5.8625 12.4875 5.91875 12.9563 6.0125 13.4062C6.18125 14.175 6.48125 14.8875 6.89375 15.5438C7.4 16.35 8.09375 17.0437 8.9 17.5687C9.40625 17.9062 9.95 18.15 10.5125 18.3187C11.15 18.525 11.825 18.6188 12.4813 18.6188C12.7812 18.6188 13.0812 18.6 13.3625 18.5625C14.3187 18.4312 15.2563 18.0938 16.0438 17.5875C16.85 17.0625 17.5437 16.3687 18.0687 15.5625C18.5 14.8875 18.8 14.175 18.95 13.4062C19.0438 12.9563 19.1 12.4688 19.1 12C19.1375 11.5125 19.0812 11.025 18.9688 10.5562ZM12.5 0C5.88125 0 0.5 5.38125 0.5 12C0.5 18.6187 5.88125 24 12.5 24C19.1187 24 24.5 18.6187 24.5 12C24.5 5.38125 19.1187 0 12.5 0ZM21.1813 18.5062C20.5625 19.3312 19.8125 20.0813 18.9875 20.7L16.7938 18.4875C16.7563 18.5063 16.7188 18.525 16.7 18.5625C15.7625 19.1625 14.675 19.575 13.55 19.725C13.5312 19.725 13.4937 19.725 13.475 19.725V22.8187C13.1562 22.8562 12.8375 22.8563 12.5187 22.8563C11.7875 22.8563 11.075 22.7812 10.3813 22.65V19.4813C10.325 19.4625 10.2688 19.4625 10.2125 19.4437C9.5375 19.2375 8.9 18.9375 8.31875 18.5438C8.28125 18.525 8.24375 18.5063 8.225 18.4688L6.0125 20.6813C5.1875 20.0625 4.4375 19.3125 3.81875 18.4875L6.03125 16.275C6.0125 16.2375 5.99375 16.2 5.95625 16.1813C5.46875 15.4125 5.1125 14.5688 4.925 13.6688C4.925 13.6313 4.90625 13.5938 4.90625 13.5563H1.75625C1.68125 13.05 1.64375 12.5437 1.64375 12.0187C1.64375 11.4937 1.68125 10.9688 1.75625 10.4438H4.8875C4.8875 10.4062 4.90625 10.3687 4.90625 10.3125C5.1125 9.4125 5.45 8.56875 5.95625 7.8C5.975 7.7625 5.99375 7.725 6.03125 7.70625L3.81875 5.475C4.4375 4.65 5.1875 3.9 6.0125 3.28125L8.225 5.49375C8.2625 5.475 8.3 5.45625 8.31875 5.41875C8.88125 5.04375 9.51875 4.7625 10.175 4.55625C10.2312 4.5375 10.2875 4.51875 10.3438 4.51875V1.35C11.0375 1.2 11.75 1.14375 12.4813 1.14375C12.8 1.14375 13.1187 1.1625 13.4375 1.18125V4.275C13.4563 4.275 13.4938 4.275 13.5125 4.29375C14.6375 4.44375 15.6875 4.8375 16.6437 5.45625C16.6812 5.475 16.7188 5.49375 16.7375 5.53125L18.95 3.31875C19.775 3.9375 20.525 4.6875 21.1437 5.5125L18.9875 7.70625C19.0063 7.74375 19.025 7.78125 19.0625 7.8C19.55 8.56875 19.9062 9.39375 20.0938 10.2938C20.0938 10.3313 20.1125 10.3687 20.1125 10.425H23.2438C23.3188 10.9312 23.3563 11.4563 23.3563 12C23.3563 12.525 23.3188 13.0312 23.2438 13.5375H20.1125C20.1125 13.575 20.0938 13.6125 20.0938 13.6688C19.9062 14.55 19.55 15.4125 19.0438 16.2C19.025 16.2375 19.0063 16.275 18.9688 16.2938L21.1813 18.5062Z" fill="white"/>
</svg>
