<svg width="24" height="12" viewBox="0 0 24 12" fill="none" xmlns="http://www.w3.org/2000/svg">
<path d="M22.4813 1.2938H16.6312C16.3312 1.2938 16.0875 1.5188 16.0875 1.80005V10.1813C16.0875 10.4625 16.3312 10.6875 16.6312 10.6875H22.4813C22.7812 10.6875 23.025 10.4625 23.025 10.1813V1.8188C23.025 1.5188 22.7812 1.2938 22.4813 1.2938ZM21.225 4.31255C20.9625 4.61255 20.7375 4.9313 20.5125 5.2313C20.2875 5.5313 20.1 5.85005 19.9313 6.18755C19.7625 6.52505 19.6125 6.8813 19.4813 7.27505C19.35 7.6688 19.2563 8.10005 19.1813 8.5688H18.3937C18.45 8.1938 18.525 7.8188 18.6375 7.46255C18.7313 7.1063 18.8625 6.75005 19.0125 6.3938C19.1625 6.0563 19.35 5.7188 19.5563 5.3813C19.7625 5.0438 20.0062 4.72505 20.2875 4.4063H17.6625V3.8438H21.2438V4.31255H21.225ZM14.925 1.2938H9.075C8.775 1.2938 8.53125 1.5188 8.53125 1.80005V10.1813C8.53125 10.4625 8.775 10.6875 9.075 10.6875H14.925C15.225 10.6875 15.4688 10.4625 15.4688 10.1813V1.8188C15.4688 1.5188 15.225 1.2938 14.925 1.2938ZM13.6688 4.31255C13.4062 4.61255 13.1812 4.9313 12.9562 5.2313C12.7312 5.5313 12.5437 5.85005 12.375 6.18755C12.2063 6.52505 12.0562 6.8813 11.925 7.27505C11.7937 7.6688 11.7 8.10005 11.625 8.5688H10.8375C10.8938 8.1938 10.9688 7.8188 11.0812 7.46255C11.175 7.1063 11.3062 6.75005 11.4562 6.3938C11.6062 6.0563 11.7937 5.7188 12 5.3813C12.2063 5.0438 12.45 4.72505 12.7313 4.4063H10.1063V3.8438H13.6875V4.31255H13.6688ZM7.36875 1.2938H1.51875C1.21875 1.2938 0.975 1.5188 0.975 1.80005V10.1813C0.975 10.4625 1.21875 10.6875 1.51875 10.6875H7.36875C7.66875 10.6875 7.9125 10.4625 7.9125 10.1813V1.8188C7.93125 1.5188 7.66875 1.2938 7.36875 1.2938ZM6.13125 4.31255C5.86875 4.61255 5.64375 4.9313 5.41875 5.2313C5.19375 5.5313 5.00625 5.85005 4.8375 6.18755C4.66875 6.52505 4.51875 6.8813 4.3875 7.27505C4.25625 7.6688 4.1625 8.10005 4.0875 8.5688H3.3C3.35625 8.1938 3.43125 7.8188 3.54375 7.46255C3.6375 7.1063 3.76875 6.75005 3.91875 6.3938C4.06875 6.0563 4.25625 5.7188 4.4625 5.3813C4.66875 5.0438 4.9125 4.72505 5.19375 4.4063H2.56875V3.8438H6.15V4.31255H6.13125ZM22.9125 0.393799H1.0875C0.4875 0.393799 0 0.843799 0 1.4063V10.5938C0 11.1563 0.4875 11.6063 1.0875 11.6063H22.9313C23.5312 11.6063 24.0188 11.1563 24.0188 10.5938V1.4063C24 0.843799 23.5125 0.393799 22.9125 0.393799ZM23.4562 10.5938C23.4562 10.875 23.2125 11.1 22.9125 11.1H1.0875C0.7875 11.1 0.54375 10.875 0.54375 10.5938V1.4063C0.54375 1.12505 0.7875 0.900049 1.0875 0.900049H22.9313C23.2313 0.900049 23.475 1.12505 23.475 1.4063V10.5938H23.4562Z" fill="white"/>
</svg>
