<svg width="25" height="24" viewBox="0 0 25 24" fill="none" xmlns="http://www.w3.org/2000/svg">
<path d="M24.5 14.9437C24.5 18.1687 21.7812 20.7938 18.4062 20.7938C16.1 20.7938 14.1875 19.7062 13.1937 17.9437C14.9 21.8062 16.9437 23.3438 16.9437 23.3438H8.0375C8.0375 23.3438 10.2875 21.8438 12.0875 17.925C11.0188 19.7062 8.9 20.8125 6.575 20.8125C3.21875 20.7938 0.5 18.1687 0.5 14.9437C0.5 11.7 3.21875 9.09375 6.59375 9.09375C7.04375 9.09375 7.475 9.13125 7.90625 9.225C7.1375 8.325 6.6875 7.18125 6.6875 5.925C6.66875 3.01875 9.125 0.65625 12.1625 0.65625C15.1813 0.65625 17.6375 3.01875 17.6375 5.925C17.6375 7.3125 17.075 8.5875 16.1562 9.50625C16.85 9.24375 17.6187 9.09375 18.4062 9.09375C21.7812 9.09375 24.5 11.7187 24.5 14.9437Z" fill="white"/>
</svg>
