<svg width="13" height="12" viewBox="0 0 13 12" fill="none" xmlns="http://www.w3.org/2000/svg">
<path fill-rule="evenodd" clip-rule="evenodd" d="M1.75 0C1.05933 0 0.5 0.56 0.5 1.25V10C0.5 10.5304 0.710714 11.0391 1.08579 11.4142C1.46086 11.7893 1.96957 12 2.5 12H12.5C11.9696 12 11.4609 11.7893 11.0858 11.4142C10.7107 11.0391 10.5 10.5304 10.5 10V1.25C10.5 0.559333 9.94 0 9.25 0H1.75ZM7 4.5C6.86739 4.5 6.74022 4.55268 6.64645 4.64645C6.55268 4.74022 6.5 4.86739 6.5 5C6.5 5.13261 6.55268 5.25979 6.64645 5.35355C6.74022 5.44732 6.86739 5.5 7 5.5H8C8.13261 5.5 8.25979 5.44732 8.35355 5.35355C8.44732 5.25979 8.5 5.13261 8.5 5C8.5 4.86739 8.44732 4.74022 8.35355 4.64645C8.25979 4.55268 8.13261 4.5 8 4.5H7ZM6.5 3C6.5 2.86739 6.55268 2.74021 6.64645 2.64645C6.74022 2.55268 6.86739 2.5 7 2.5H8C8.13261 2.5 8.25979 2.55268 8.35355 2.64645C8.44732 2.74021 8.5 2.86739 8.5 3C8.5 3.13261 8.44732 3.25978 8.35355 3.35355C8.25979 3.44732 8.13261 3.5 8 3.5H7C6.86739 3.5 6.74022 3.44732 6.64645 3.35355C6.55268 3.25978 6.5 3.13261 6.5 3ZM3 6.5C2.86739 6.5 2.74021 6.55268 2.64645 6.64645C2.55268 6.74022 2.5 6.86739 2.5 7C2.5 7.13261 2.55268 7.25979 2.64645 7.35355C2.74021 7.44732 2.86739 7.5 3 7.5H8C8.13261 7.5 8.25979 7.44732 8.35355 7.35355C8.44732 7.25979 8.5 7.13261 8.5 7C8.5 6.86739 8.44732 6.74022 8.35355 6.64645C8.25979 6.55268 8.13261 6.5 8 6.5H3ZM2.5 9C2.5 8.86739 2.55268 8.74022 2.64645 8.64645C2.74021 8.55268 2.86739 8.5 3 8.5H8C8.13261 8.5 8.25979 8.55268 8.35355 8.64645C8.44732 8.74022 8.5 8.86739 8.5 9C8.5 9.13261 8.44732 9.25979 8.35355 9.35355C8.25979 9.44732 8.13261 9.5 8 9.5H3C2.86739 9.5 2.74021 9.44732 2.64645 9.35355C2.55268 9.25979 2.5 9.13261 2.5 9ZM3 2.5C2.86739 2.5 2.74021 2.55268 2.64645 2.64645C2.55268 2.74021 2.5 2.86739 2.5 3V5C2.5 5.276 2.724 5.5 3 5.5H5C5.13261 5.5 5.25979 5.44732 5.35355 5.35355C5.44732 5.25979 5.5 5.13261 5.5 5V3C5.5 2.86739 5.44732 2.74021 5.35355 2.64645C5.25979 2.55268 5.13261 2.5 5 2.5H3Z" fill="#9196A5"/>
</svg>
