<svg width="24" height="24" viewBox="0 0 24 24" fill="none" xmlns="http://www.w3.org/2000/svg">
<path d="M15.7011 11.3498L11.9999 3.33386L8.29882 11.3498L1.15845 7.89883L4.09395 21.4496H11.9999H19.9059L22.8415 7.89883L15.7011 11.3498Z" fill="white"/>
<path d="M19.9059 21.6371H4.09389C4.00567 21.6371 3.92936 21.5755 3.91061 21.4893L0.975204 7.93849C0.960017 7.86836 0.986173 7.79589 1.04242 7.75146C1.09867 7.70711 1.17545 7.69868 1.23995 7.72999L8.20858 11.0979L11.8297 3.2553C11.8603 3.18892 11.9268 3.14636 11.9999 3.14636C12.073 3.14636 12.1395 3.18892 12.1702 3.2553L15.7913 11.0979L22.7599 7.72999C22.8244 7.69877 22.9012 7.70711 22.9574 7.75146C23.0137 7.7958 23.0398 7.86836 23.0246 7.93849L20.0891 21.4893C20.0704 21.5755 19.9941 21.6371 19.9059 21.6371ZM4.2452 21.2621H19.7546L22.5767 8.23502L15.7825 11.5186C15.7373 11.5405 15.685 11.5432 15.6378 11.5263C15.5905 11.5093 15.5518 11.4741 15.5307 11.4284L11.9999 3.78124L8.46911 11.4284C8.44802 11.4741 8.40948 11.5093 8.36205 11.5263C8.3148 11.5433 8.26258 11.5406 8.2173 11.5186L1.42314 8.23502L4.2452 21.2621Z" fill="white"/>
<path d="M1.34357 8.66048C1.76407 8.55837 2.02217 8.1347 1.92005 7.71421C1.81793 7.29371 1.39427 7.03562 0.973777 7.13773C0.553282 7.23985 0.295184 7.66351 0.397301 8.08401C0.499418 8.5045 0.923079 8.7626 1.34357 8.66048Z" fill="#1D1D1D"/>
<path d="M23.3668 8.48046C23.6878 8.19033 23.7128 7.6949 23.4227 7.37388C23.1326 7.05287 22.6371 7.02782 22.3161 7.31795C21.9951 7.60807 21.9701 8.1035 22.2602 8.42452C22.5503 8.74554 23.0457 8.77058 23.3668 8.48046Z" fill="#1D1D1D"/>
<path d="M12.1629 4.10052C12.5862 4.01065 12.8564 3.59467 12.7665 3.17141C12.6767 2.74814 12.2607 2.47787 11.8374 2.56774C11.4142 2.65761 11.1439 3.07359 11.2338 3.49686C11.3236 3.92012 11.7396 4.19039 12.1629 4.10052Z" fill="#1D1D1D"/>
<path d="M1.15847 8.86979C0.623063 8.86979 0.1875 8.43423 0.1875 7.89882C0.1875 7.36342 0.623063 6.92786 1.15847 6.92786C1.69388 6.92786 2.12944 7.36342 2.12944 7.89882C2.12944 8.43423 1.69388 8.86979 1.15847 8.86979ZM1.15847 7.30286C0.829875 7.30286 0.5625 7.57023 0.5625 7.89882C0.5625 8.22742 0.829875 8.49479 1.15847 8.49479C1.48706 8.49479 1.75444 8.22742 1.75444 7.89882C1.75444 7.57023 1.48716 7.30286 1.15847 7.30286Z" fill="white"/>
<path d="M22.8416 8.86979C22.3062 8.86979 21.8706 8.43423 21.8706 7.89882C21.8706 7.36342 22.3062 6.92786 22.8416 6.92786C23.377 6.92786 23.8125 7.36342 23.8125 7.89882C23.8125 8.43423 23.377 8.86979 22.8416 8.86979ZM22.8416 7.30286C22.513 7.30286 22.2456 7.57023 22.2456 7.89882C22.2456 8.22742 22.513 8.49479 22.8416 8.49479C23.1702 8.49479 23.4375 8.22742 23.4375 7.89882C23.4375 7.57023 23.1702 7.30286 22.8416 7.30286Z" fill="white"/>
<path d="M12 4.30485C11.4646 4.30485 11.0291 3.86929 11.0291 3.33388C11.0291 2.79848 11.4646 2.36292 12 2.36292C12.5354 2.36292 12.971 2.79848 12.971 3.33388C12.971 3.86929 12.5354 4.30485 12 4.30485ZM12 2.73792C11.6714 2.73792 11.4041 3.00529 11.4041 3.33388C11.4041 3.66248 11.6714 3.92985 12 3.92985C12.3286 3.92985 12.596 3.66248 12.596 3.33388C12.596 3.00529 12.3286 2.73792 12 2.73792Z" fill="white"/>
<path d="M12 17.7594L9.85998 18.8845L10.2686 16.5015L8.53735 14.8139L10.9299 14.4662L12 12.2981L13.0701 14.4662L15.4627 14.8139L13.7314 16.5015L14.14 18.8845L12 17.7594Z" fill="#1D1D1D"/>
<path d="M14.1401 19.072C14.1103 19.072 14.0803 19.0649 14.0528 19.0505L12 17.9713L9.94715 19.0505C9.88406 19.0837 9.80746 19.0782 9.74971 19.0363C9.69196 18.9943 9.66309 18.9232 9.67518 18.8529L10.0672 16.5671L8.40646 14.9482C8.35537 14.8984 8.33699 14.8239 8.35903 14.756C8.38106 14.6882 8.43974 14.6388 8.51043 14.6284L10.8055 14.2949L11.8319 12.2151C11.8635 12.1511 11.9286 12.1106 12 12.1106C12.0713 12.1106 12.1366 12.1511 12.1681 12.2151L13.1945 14.2949L15.4896 14.6284C15.5602 14.6387 15.6188 14.6882 15.641 14.756C15.663 14.8239 15.6446 14.8984 15.5935 14.9482L13.9327 16.5671L14.3248 18.8529C14.3369 18.9232 14.3079 18.9943 14.2503 19.0363C14.2177 19.0599 14.1789 19.072 14.1401 19.072ZM12 17.5719C12.03 17.5719 12.0599 17.5791 12.0873 17.5934L13.8911 18.5417L13.5466 16.5332C13.5362 16.4724 13.5563 16.4103 13.6005 16.3672L15.0598 14.9448L13.0431 14.6517C12.982 14.6429 12.9292 14.6045 12.9019 14.5491L12 12.7218L11.0981 14.5492C11.0707 14.6045 11.0181 14.643 10.9569 14.6518L8.94018 14.9448L10.3995 16.3673C10.4437 16.4103 10.4639 16.4725 10.4534 16.5333L10.1089 18.5418L11.9127 17.5935C11.9401 17.5791 11.97 17.5719 12 17.5719Z" fill="#1D1D1D"/>
</svg>
