<svg width="24" height="24" viewBox="0 0 24 24" fill="none" xmlns="http://www.w3.org/2000/svg">
<g clip-path="url(#clip0_656_1475)">
<path d="M23.7138 12.2245C23.7138 11.2413 23.634 10.5238 23.4614 9.77966H12.2334V14.2176H18.824C18.6911 15.3205 17.9736 16.9815 16.3791 18.0976L16.3567 18.2462L19.9068 20.9964L20.1528 21.0209C22.4116 18.9347 23.7138 15.8653 23.7138 12.2245Z" fill="#4285F4"/>
<path d="M12.2335 23.9176C15.4623 23.9176 18.1729 22.8545 20.1529 21.0209L16.3792 18.0976C15.3693 18.8018 14.014 19.2934 12.2335 19.2934C9.07109 19.2934 6.38703 17.2074 5.43023 14.324L5.28999 14.3359L1.59857 17.1927L1.55029 17.3269C3.51683 21.2334 7.55625 23.9176 12.2335 23.9176Z" fill="#34A853"/>
<path d="M5.42992 14.3239C5.17747 13.5798 5.03136 12.7825 5.03136 11.9587C5.03136 11.1349 5.17747 10.3376 5.41664 9.59354L5.40996 9.43507L1.67228 6.53235L1.54999 6.59052C0.739483 8.21162 0.274414 10.032 0.274414 11.9587C0.274414 13.8854 0.739483 15.7058 1.54999 17.3269L5.42992 14.3239Z" fill="#FBBC05"/>
<path d="M12.2335 4.62403C14.4791 4.62403 15.9938 5.59402 16.8575 6.40461L20.2326 3.10928C18.1598 1.1826 15.4623 0 12.2335 0C7.55625 0 3.51683 2.68406 1.55029 6.59056L5.41695 9.59359C6.38703 6.7102 9.07109 4.62403 12.2335 4.62403Z" fill="#EB4335"/>
</g>
<defs>
<clipPath id="clip0_656_1475">
<rect width="23.4528" height="24" fill="white" transform="translate(0.273438)"/>
</clipPath>
</defs>
</svg>
