<svg width="32" height="33" viewBox="0 0 32 33" fill="none" xmlns="http://www.w3.org/2000/svg">
<g clip-path="url(#clip0_650_399)">
<path d="M8.11451 32.8196C6.87677 32.8058 5.65068 32.5788 4.49004 32.1485C3.64249 31.8353 2.87567 31.3365 2.24565 30.6888C1.59616 30.06 1.09668 29.293 0.784314 28.4447C0.354432 27.2841 0.127743 26.0581 0.114196 24.8205C0.0191373 22.7631 0 22.146 0 16.9329C0 11.7197 0.0210196 11.1048 0.113255 9.0458C0.128446 7.80871 0.355414 6.58336 0.784314 5.4229C1.09821 4.57521 1.59698 3.80809 2.24439 3.17725C2.87364 2.52835 3.64082 2.02934 4.4891 1.71718C5.64973 1.28694 6.87583 1.05993 8.11357 1.04612C10.1716 0.951999 10.7896 0.932861 16 0.932861C21.2104 0.932861 21.8281 0.953881 23.8871 1.04612C25.1245 1.0612 26.3501 1.28817 27.5109 1.71718C28.3588 2.02975 29.1258 2.52859 29.7553 3.17694C30.4038 3.80666 30.9029 4.57383 31.2157 5.42196C31.646 6.58258 31.8731 7.80868 31.8871 9.04643C31.9812 11.1054 32.0003 11.7219 32.0003 16.9335C32.0003 22.1451 31.9812 22.7616 31.8871 24.8205C31.8721 26.0581 31.645 27.2839 31.2157 28.4447C30.8909 29.2865 30.3935 30.0509 29.7554 30.6888C29.1173 31.3268 28.3528 31.824 27.5109 32.1485C26.3503 32.5789 25.1242 32.806 23.8864 32.8199C21.8293 32.914 21.211 32.9332 15.9994 32.9332C10.7878 32.9332 10.1713 32.915 8.1142 32.8199" fill="url(#paint0_radial_650_399)"/>
<path d="M8.11451 32.8196C6.87677 32.8058 5.65068 32.5788 4.49004 32.1485C3.64249 31.8353 2.87567 31.3365 2.24565 30.6888C1.59616 30.06 1.09668 29.293 0.784314 28.4447C0.354432 27.2841 0.127743 26.0581 0.114196 24.8205C0.0191373 22.7631 0 22.146 0 16.9329C0 11.7197 0.0210196 11.1048 0.113255 9.0458C0.128446 7.80871 0.355414 6.58336 0.784314 5.4229C1.09821 4.57521 1.59698 3.80809 2.24439 3.17725C2.87364 2.52835 3.64082 2.02934 4.4891 1.71718C5.64973 1.28694 6.87583 1.05993 8.11357 1.04612C10.1716 0.951999 10.7896 0.932861 16 0.932861C21.2104 0.932861 21.8281 0.953881 23.8871 1.04612C25.1245 1.0612 26.3501 1.28817 27.5109 1.71718C28.3588 2.02975 29.1258 2.52859 29.7553 3.17694C30.4038 3.80666 30.9029 4.57383 31.2157 5.42196C31.646 6.58258 31.8731 7.80868 31.8871 9.04643C31.9812 11.1054 32.0003 11.7219 32.0003 16.9335C32.0003 22.1451 31.9812 22.7616 31.8871 24.8205C31.8721 26.0581 31.645 27.2839 31.2157 28.4447C30.8909 29.2865 30.3935 30.0509 29.7554 30.6888C29.1173 31.3268 28.3528 31.824 27.5109 32.1485C26.3503 32.5789 25.1242 32.806 23.8864 32.8199C21.8293 32.914 21.211 32.9332 15.9994 32.9332C10.7878 32.9332 10.1713 32.915 8.1142 32.8199" fill="url(#paint1_radial_650_399)"/>
<path d="M12.0712 17.0009C12.0713 16.2172 12.3038 15.4511 12.7392 14.7994C13.1747 14.1478 13.7937 13.6399 14.5178 13.3401C15.2419 13.0402 16.0387 12.9618 16.8074 13.1148C17.5761 13.2678 18.2821 13.6453 18.8363 14.1996C19.3904 14.7538 19.7677 15.46 19.9205 16.2287C20.0733 16.9974 19.9947 17.7942 19.6947 18.5182C19.3947 19.2423 18.8867 19.8611 18.2349 20.2964C17.5832 20.7318 16.817 20.964 16.0333 20.9639C14.9824 20.9638 13.9745 20.5461 13.2315 19.803C12.4885 19.0598 12.0711 18.0519 12.0712 17.0009ZM9.92879 17.0009C9.92879 18.2083 10.2868 19.3885 10.9576 20.3924C11.6283 21.3963 12.5817 22.1787 13.6972 22.6407C14.8126 23.1028 16.04 23.2237 17.2242 22.9881C18.4083 22.7526 19.496 22.1712 20.3498 21.3175C21.2035 20.4637 21.7849 19.376 22.0204 18.1919C22.256 17.0077 22.1351 15.7803 21.6731 14.6649C21.211 13.5494 20.4286 12.596 19.4247 11.9253C18.4208 11.2545 17.2406 10.8965 16.0333 10.8965C15.2316 10.8964 14.4378 11.0543 13.6971 11.3611C12.9565 11.6678 12.2835 12.1175 11.7167 12.6843C11.1498 13.2512 10.7001 13.9242 10.3934 14.6648C10.0866 15.4055 9.92875 16.1993 9.92879 17.0009ZM20.9528 10.6546C20.9527 10.9367 21.0362 11.2126 21.1929 11.4472C21.3495 11.6819 21.5722 11.8648 21.8328 11.9729C22.0934 12.081 22.3802 12.1094 22.657 12.0544C22.9337 11.9995 23.188 11.8638 23.3876 11.6644C23.5871 11.4649 23.7231 11.2108 23.7783 10.9341C23.8334 10.6574 23.8053 10.3706 23.6975 10.1099C23.5896 9.84919 23.4069 9.62632 23.1723 9.46947C22.9378 9.31262 22.6621 9.22883 22.3799 9.22871C22.0018 9.22887 21.6391 9.37913 21.3716 9.64648C21.1042 9.91384 20.9538 10.2764 20.9534 10.6546M11.2311 26.6778C10.4772 26.6695 9.73043 26.5316 9.02338 26.27C8.51062 26.0723 8.04493 25.7695 7.65627 25.381C7.26761 24.9925 6.96461 24.527 6.76675 24.0143C6.50504 23.3073 6.36707 22.5604 6.35891 21.8066C6.30118 20.5536 6.28989 20.1771 6.28989 17.0025C6.28989 13.8279 6.30244 13.4524 6.35891 12.1981C6.36806 11.4444 6.50599 10.6977 6.76675 9.99043C6.96438 9.47751 7.26729 9.0117 7.65597 8.62302C8.04465 8.23435 8.51046 7.93143 9.02338 7.73381C9.7304 7.47209 10.4772 7.33413 11.2311 7.32596C12.4841 7.26824 12.8606 7.25694 16.0339 7.25694C19.2072 7.25694 19.584 7.26918 20.8383 7.32628C21.592 7.33542 22.3387 7.47336 23.046 7.73412C23.5589 7.93176 24.0247 8.23468 24.4134 8.62336C24.802 9.01203 25.105 9.47784 25.3026 9.99075C25.5643 10.6978 25.7023 11.4446 25.7104 12.1984C25.7682 13.4533 25.7795 13.8279 25.7795 17.0028C25.7795 20.1777 25.7679 20.5529 25.7104 21.8072C25.7017 22.561 25.5637 23.3077 25.3026 24.0149C25.1047 24.5276 24.8017 24.9931 24.4131 25.3816C24.0244 25.7701 23.5587 26.073 23.046 26.2706C22.339 26.5323 21.5921 26.6703 20.8383 26.6784C19.5853 26.7362 19.2088 26.7474 16.0339 26.7474C12.859 26.7474 12.4838 26.7358 11.2311 26.6784M11.1326 5.18541C10.1462 5.20481 9.1702 5.39151 8.24628 5.73757C7.45648 6.04294 6.7392 6.50998 6.14044 7.10875C5.54167 7.70751 5.07463 8.42479 4.76926 9.21459C4.42325 10.1385 4.23655 11.1145 4.21711 12.1009C4.15844 13.3683 4.14526 13.7736 4.14526 17.0022C4.14526 20.2307 4.15875 20.6358 4.21711 21.9035C4.23654 22.8899 4.42325 23.8659 4.76926 24.7898C5.07465 25.5796 5.5417 26.2969 6.14046 26.8956C6.73922 27.4944 7.45649 27.9614 8.24628 28.2668C9.17024 28.6127 10.1462 28.7994 11.1326 28.819C12.4006 28.8767 12.8053 28.8908 16.0339 28.8908C19.2624 28.8908 19.6675 28.8773 20.9352 28.819C21.9216 28.7995 22.8976 28.6128 23.8215 28.2668C24.6113 27.9614 25.3286 27.4944 25.9273 26.8956C26.5261 26.2969 26.9931 25.5796 27.2985 24.7898C27.645 23.866 27.8317 22.89 27.8507 21.9035C27.9084 20.6351 27.9216 20.2307 27.9216 17.0022C27.9216 13.7736 27.9081 13.3686 27.8507 12.1009C27.8313 11.1145 27.6446 10.1385 27.2985 9.21459C26.9931 8.42494 26.5262 7.70777 25.9276 7.10903C25.3291 6.51028 24.612 6.04315 23.8224 5.73757C22.8986 5.39129 21.9226 5.20458 20.9362 5.18541C19.6684 5.12738 19.2634 5.11357 16.0355 5.11357C12.8075 5.11357 12.4016 5.12706 11.1332 5.18541" fill="white"/>
</g>
<defs>
<radialGradient id="paint0_radial_650_399" cx="0" cy="0" r="1" gradientUnits="userSpaceOnUse" gradientTransform="translate(2.0709 32.232) scale(40.6281)">
<stop offset="0.09" stop-color="#FA8F21"/>
<stop offset="0.78" stop-color="#D82D7E"/>
</radialGradient>
<radialGradient id="paint1_radial_650_399" cx="0" cy="0" r="1" gradientUnits="userSpaceOnUse" gradientTransform="translate(22.1653 31.2042) scale(35.7531)">
<stop offset="0.64" stop-color="#8C3AAA" stop-opacity="0"/>
<stop offset="1" stop-color="#8C3AAA"/>
</radialGradient>
<clipPath id="clip0_650_399">
<rect width="32" height="32" fill="white" transform="translate(0 0.932861)"/>
</clipPath>
</defs>
</svg>
