<svg width="32" height="33" viewBox="0 0 32 33" fill="none" xmlns="http://www.w3.org/2000/svg">
<g clip-path="url(#clip0_650_403)">
<path d="M32 16.9329C32 8.09631 24.8366 0.932861 16 0.932861C7.16344 0.932861 0 8.09631 0 16.9329C0 25.7694 7.16344 32.9329 16 32.9329C24.8366 32.9329 32 25.7694 32 16.9329Z" fill="#419FD9"/>
<path d="M32 16.9329C32 8.09631 24.8366 0.932861 16 0.932861C7.16344 0.932861 0 8.09631 0 16.9329C0 25.7694 7.16344 32.9329 16 32.9329C24.8366 32.9329 32 25.7694 32 16.9329Z" fill="url(#paint0_linear_650_403)"/>
<path d="M7.1916 16.5801C11.8445 14.5104 14.9471 13.1459 16.4995 12.4865C20.9319 10.6042 21.853 10.2772 22.4533 10.2663C22.5853 10.2641 22.8805 10.2975 23.0718 10.4559C23.2333 10.5897 23.2777 10.7704 23.2989 10.8972C23.3202 11.0241 23.3467 11.313 23.3256 11.5387C23.0854 14.1155 22.0461 20.3688 21.5173 23.2549C21.2936 24.4761 20.8531 24.8855 20.4266 24.9256C19.4997 25.0127 18.7959 24.3002 17.8982 23.6993C16.4934 22.7592 15.6999 22.1739 14.3363 21.2565C12.7605 20.1962 13.782 19.6135 14.6801 18.6611C14.9151 18.4119 18.9989 14.6192 19.0779 14.2752C19.0878 14.2321 19.097 14.0717 19.0037 13.9871C18.9103 13.9024 18.7726 13.9313 18.6732 13.9543C18.5323 13.987 16.2882 15.5015 11.9409 18.4977C11.3039 18.9443 10.7269 19.1619 10.21 19.1505C9.64013 19.1379 8.54393 18.8215 7.729 18.5511C6.72947 18.2193 5.93503 18.0439 6.0042 17.4805C6.04023 17.1871 6.43602 16.8869 7.1916 16.5801Z" fill="white"/>
</g>
<defs>
<linearGradient id="paint0_linear_650_403" x1="16" y1="0.932861" x2="16" y2="32.6955" gradientUnits="userSpaceOnUse">
<stop stop-color="#2AABEE"/>
<stop offset="1" stop-color="#229ED9"/>
</linearGradient>
<clipPath id="clip0_650_403">
<rect width="32" height="32" fill="white" transform="translate(0 0.932861)"/>
</clipPath>
</defs>
</svg>
