<svg width="32" height="33" viewBox="0 0 32 33" fill="none" xmlns="http://www.w3.org/2000/svg">
<g clip-path="url(#clip0_650_407)">
<path d="M27.337 5.58312C24.3288 2.5861 20.3288 0.93469 16.0671 0.932861C7.28521 0.932861 0.138496 8.04586 0.13498 16.7887C0.133956 19.5834 0.867401 22.3115 2.26148 24.7162L0.0012207 32.9329L8.44704 30.728C10.774 31.9915 13.394 32.6572 16.0603 32.6583H16.0671H16.0671C24.8476 32.6583 31.9954 25.5441 31.9992 16.8016C32.0006 12.5644 30.3448 8.58034 27.337 5.58312ZM16.0671 29.9802H16.062C13.6854 29.9789 11.3549 29.3437 9.32211 28.1428L8.83834 27.8573L3.82642 29.1656L5.16454 24.3022L4.84934 23.8037C3.52369 21.7051 2.82386 19.28 2.82485 16.7898C2.82777 9.52296 8.76784 3.61108 16.0721 3.61108C19.6093 3.61255 22.9338 4.98521 25.4341 7.47624C27.9342 9.96725 29.3101 13.2787 29.309 16.8005C29.3059 24.0675 23.3657 29.9802 16.0671 29.9802Z" fill="#E0E0E0"/>
<path d="M0.732422 32.0211L2.88944 24.1798C1.55869 21.8849 0.858887 19.2813 0.859727 16.6148C0.863216 8.27145 7.68354 1.48357 16.0636 1.48357C20.1308 1.48539 23.9482 3.06129 26.8183 5.92148C29.6891 8.78164 31.269 12.5834 31.2674 16.6266C31.2639 24.9702 24.4432 31.7587 16.0642 31.7587C16.0636 31.7587 16.0646 31.7587 16.0642 31.7587H16.0574C13.513 31.7579 11.0128 31.1219 8.79228 29.9171L0.732422 32.0211Z" fill="url(#paint0_linear_650_407)"/>
<path fill-rule="evenodd" clip-rule="evenodd" d="M12.1299 10.0572C11.8351 9.40471 11.5248 9.39165 11.2444 9.38023C11.015 9.37044 10.7524 9.37104 10.4902 9.37104C10.2279 9.37104 9.8015 9.46921 9.44095 9.86125C9.08018 10.2533 8.06348 11.201 8.06348 13.1285C8.06348 15.0563 9.47375 16.9189 9.67032 17.1805C9.8671 17.4418 12.3927 21.5237 16.3925 23.0941C19.7166 24.3992 20.3931 24.1396 21.1146 24.0743C21.8361 24.009 23.4428 23.1268 23.7707 22.2119C24.0987 21.2972 24.0987 20.5131 24.0003 20.3492C23.9019 20.186 23.6396 20.088 23.246 19.8921C22.8524 19.6962 20.9178 18.7482 20.5571 18.6176C20.1963 18.487 19.9339 18.4217 19.6715 18.814C19.4092 19.2058 18.6554 20.088 18.4259 20.3492C18.1963 20.6111 17.9667 20.6437 17.5731 20.4478C17.1796 20.2513 15.9122 19.838 14.4087 18.5033C13.2388 17.465 12.449 16.1825 12.2195 15.7903C11.9899 15.3985 12.1948 15.1862 12.3923 14.9909C12.5689 14.8154 12.7858 14.5336 12.9826 14.3048C13.179 14.076 13.2446 13.9128 13.3757 13.6515C13.5069 13.3899 13.4413 13.1611 13.3429 12.9652C13.2446 12.7693 12.4798 10.8318 12.1299 10.0572Z" fill="white"/>
<path d="M27.2068 5.53273C24.2332 2.57011 20.2791 0.937691 16.0663 0.935837C7.38519 0.935837 0.320515 7.96718 0.317025 16.6097C0.316002 19.3724 1.04102 22.069 2.4191 24.4462L0.184814 32.5685L8.53368 30.3889C10.834 31.6379 13.4239 32.296 16.0596 32.297H16.0662H16.0663C24.746 32.297 31.8117 25.2645 31.8154 16.6223C31.8169 12.4338 30.1801 8.49555 27.2068 5.53273ZM16.0663 29.6498H16.0612C13.7119 29.6485 11.4081 29.0206 9.39871 27.8335L8.92048 27.5512L3.96609 28.8445L5.28883 24.037L4.97726 23.5441C3.66683 21.4697 2.97502 19.0723 2.97604 16.6107C2.9789 9.42738 8.85079 3.58336 16.0713 3.58336C19.5678 3.5848 22.8541 4.94171 25.3257 7.40414C27.7972 9.86657 29.1572 13.14 29.1562 16.6214C29.1531 23.8049 23.281 29.6498 16.0663 29.6498Z" fill="white"/>
</g>
<defs>
<linearGradient id="paint0_linear_650_407" x1="15.9999" y1="32.0211" x2="15.9999" y2="1.48362" gradientUnits="userSpaceOnUse">
<stop stop-color="#20B038"/>
<stop offset="1" stop-color="#60D66A"/>
</linearGradient>
<clipPath id="clip0_650_407">
<rect width="32" height="32" fill="white" transform="translate(0 0.932861)"/>
</clipPath>
</defs>
</svg>
